<?xml version="1.0" encoding="utf-8" standalone="no"?>
<!DOCTYPE svg PUBLIC "-//W3C//DTD SVG 1.1//EN"
  "http://www.w3.org/Graphics/SVG/1.1/DTD/svg11.dtd">
<!-- Created with matplotlib (https://matplotlib.org/) -->
<svg height="704.88pt" version="1.1" viewBox="0 0 663.84 704.88" width="663.84pt" xmlns="http://www.w3.org/2000/svg" xmlns:xlink="http://www.w3.org/1999/xlink">
 <metadata>
  <rdf:RDF xmlns:cc="http://creativecommons.org/ns#" xmlns:dc="http://purl.org/dc/elements/1.1/" xmlns:rdf="http://www.w3.org/1999/02/22-rdf-syntax-ns#">
   <cc:Work>
    <dc:type rdf:resource="http://purl.org/dc/dcmitype/StillImage"/>
    <dc:date>2021-07-13T12:18:16.240806</dc:date>
    <dc:format>image/svg+xml</dc:format>
    <dc:creator>
     <cc:Agent>
      <dc:title>Matplotlib v3.3.4, https://matplotlib.org/</dc:title>
     </cc:Agent>
    </dc:creator>
   </cc:Work>
  </rdf:RDF>
 </metadata>
 <defs>
  <style type="text/css">*{stroke-linecap:butt;stroke-linejoin:round;}</style>
 </defs>
 <g id="figure_1">
  <g id="patch_1">
   <path d="M 0 704.88 
L 663.84 704.88 
L 663.84 0 
L 0 0 
z
" style="fill:#ffffff;"/>
  </g>
  <g id="axes_1">
   <g id="line2d_1">
    <path clip-path="url(#pa8b823277d)" d="M 447.908 614.4204 
L 453.902802 609.549184 
L 460.024634 604.287569 
L 466.268086 598.630143 
L 472.762354 592.447391 
L 479.629619 585.602775 
L 487.114723 577.823712 
L 495.58055 568.696938 
L 506.492417 556.583195 
L 531.814609 528.351441 
L 540.449955 519.135473 
L 547.98827 511.409619 
L 554.914214 504.623683 
L 561.471895 498.504343 
L 567.782887 492.914458 
L 573.976583 487.724706 
L 577.136 485.1924 
L 577.136 485.1924 
" style="fill:none;stroke:#000000;stroke-linecap:square;stroke-width:0.7;"/>
   </g>
   <g id="line2d_2">
    <path clip-path="url(#pa8b823277d)" d="M 577.136 485.1924 
L 556.172649 483.148788 
L 544.802299 481.809375 
L 535.386339 480.485536 
L 526.658978 479.036912 
L 518.615331 477.480604 
L 510.940881 475.774763 
L 503.328314 473.85233 
L 496.080012 471.797627 
L 488.592057 469.439055 
L 481.166308 466.862758 
L 473.506317 463.963652 
L 465.614138 460.734551 
L 457.199796 457.047703 
L 447.689415 452.62637 
L 436.226842 447.039108 
L 401.311181 429.83981 
L 392.065602 425.634323 
L 383.625654 422.037096 
L 375.705983 418.904218 
L 368.016944 416.10678 
L 360.561613 413.634023 
L 353.043194 411.382071 
L 345.765518 409.43018 
L 338.122946 407.612764 
L 330.419828 406.007261 
L 322.348543 404.547684 
L 313.594735 403.191627 
L 303.839576 401.912328 
L 292.446869 400.65116 
L 275.604 399.040399 
L 275.604 399.040399 
" style="fill:none;stroke:#000000;stroke-linecap:square;stroke-width:0.7;"/>
   </g>
   <g id="line2d_3">
    <path clip-path="url(#pa8b823277d)" d="M 275.604 399.0404 
L 267.883291 403.837813 
L 259.929366 409.042924 
L 251.746819 414.661856 
L 243.163307 420.824147 
L 234.012444 427.667275 
L 223.961048 435.465647 
L 212.513064 444.635835 
L 197.67257 456.828524 
L 163.204362 485.251394 
L 151.549823 494.505501 
L 141.453277 502.243673 
L 132.252623 509.020412 
L 123.615303 515.11096 
L 115.375445 520.653478 
L 107.360543 525.777286 
L 103.3 528.2684 
L 103.3 528.2684 
" style="fill:none;stroke:#000000;stroke-linecap:square;stroke-width:0.7;"/>
   </g>
   <g id="line2d_4">
    <path clip-path="url(#pa8b823277d)" d="M 103.3 528.2684 
L 111.928657 528.938975 
L 120.861945 529.857073 
L 130.096269 531.037078 
L 139.276466 532.433589 
L 148.756013 534.098755 
L 158.532747 536.041222 
L 168.605152 538.267053 
L 179.317154 540.866596 
L 190.320866 543.765347 
L 202.300777 547.157456 
L 214.911028 550.960304 
L 229.169719 555.499641 
L 245.748018 561.022899 
L 268.018678 568.699562 
L 309.515416 583.036764 
L 326.106913 588.50723 
L 340.381242 592.984015 
L 353.008578 596.718526 
L 364.663869 599.943064 
L 375.685707 602.769313 
L 386.417294 605.290515 
L 396.509826 607.435839 
L 406.307648 609.293952 
L 415.80907 610.871614 
L 425.011763 612.178145 
L 433.912832 613.225118 
L 442.868189 614.054943 
L 447.908 614.4204 
L 447.908 614.4204 
" style="fill:none;stroke:#000000;stroke-linecap:square;stroke-width:0.7;"/>
   </g>
   <g id="line2d_5">
    <path clip-path="url(#pa8b823277d)" d="M 447.908 312.8884 
L 453.902802 308.017184 
L 460.024634 302.755569 
L 466.268086 297.098143 
L 472.762354 290.915391 
L 479.629619 284.070775 
L 487.114723 276.291712 
L 495.58055 267.164938 
L 506.492417 255.051195 
L 531.814609 226.819441 
L 540.449955 217.603473 
L 547.98827 209.877619 
L 554.914214 203.091683 
L 561.471895 196.972343 
L 567.782887 191.382458 
L 573.976583 186.192706 
L 577.136 183.6604 
L 577.136 183.6604 
" style="fill:none;stroke:#000000;stroke-linecap:square;stroke-width:0.7;"/>
   </g>
   <g id="line2d_6">
    <path clip-path="url(#pa8b823277d)" d="M 577.136 183.6604 
L 556.172649 181.616788 
L 544.802299 180.277375 
L 535.386339 178.953536 
L 526.658978 177.504912 
L 518.615331 175.948604 
L 510.940881 174.242763 
L 503.328314 172.32033 
L 496.080012 170.265627 
L 488.592057 167.907055 
L 481.166308 165.330758 
L 473.506317 162.431652 
L 465.614138 159.202551 
L 457.199796 155.515703 
L 447.689415 151.09437 
L 436.226842 145.507108 
L 401.311181 128.30781 
L 392.065602 124.102323 
L 383.625654 120.505096 
L 375.705983 117.372218 
L 368.016944 114.57478 
L 360.561613 112.102023 
L 353.043194 109.850071 
L 345.765518 107.89818 
L 338.122946 106.080764 
L 330.419828 104.475261 
L 322.348543 103.015684 
L 313.594735 101.659627 
L 303.839576 100.380328 
L 292.446869 99.11916 
L 275.604 97.508399 
L 275.604 97.508399 
" style="fill:none;stroke:#000000;stroke-linecap:square;stroke-width:0.7;"/>
   </g>
   <g id="line2d_7">
    <path clip-path="url(#pa8b823277d)" d="M 275.604 97.5084 
L 267.883291 102.305813 
L 259.929366 107.510924 
L 251.746819 113.129856 
L 243.163307 119.292147 
L 234.012444 126.135275 
L 223.961048 133.933647 
L 212.513064 143.103835 
L 197.67257 155.296524 
L 163.204362 183.719394 
L 151.549823 192.973501 
L 141.453277 200.711673 
L 132.252623 207.488412 
L 123.615303 213.57896 
L 115.375445 219.121478 
L 107.360543 224.245286 
L 103.3 226.7364 
L 103.3 226.7364 
" style="fill:none;stroke:#000000;stroke-linecap:square;stroke-width:0.7;"/>
   </g>
   <g id="line2d_8">
    <path clip-path="url(#pa8b823277d)" d="M 103.3 226.7364 
L 126.029546 228.17937 
L 138.241214 229.178398 
L 148.604517 230.240637 
L 158.19844 231.448298 
L 167.027456 232.783486 
L 175.449375 234.281012 
L 183.467724 235.926766 
L 191.432736 237.785869 
L 199.343761 239.860919 
L 207.201278 242.150004 
L 215.345116 244.759853 
L 223.435509 247.583482 
L 232.144789 250.863664 
L 241.467486 254.622276 
L 251.733018 259.007698 
L 264.259548 264.61148 
L 303.773653 282.481066 
L 314.062215 286.774371 
L 323.07612 290.302103 
L 331.4742 293.361033 
L 339.588628 296.088523 
L 347.758064 298.595979 
L 355.641041 300.783223 
L 363.577896 302.754955 
L 371.568567 304.511421 
L 379.611869 306.057364 
L 388.058509 307.456004 
L 396.91125 308.696293 
L 406.527808 309.813411 
L 417.270162 310.825499 
L 429.860906 311.774273 
L 447.908 312.888401 
L 447.908 312.888401 
" style="fill:none;stroke:#000000;stroke-linecap:square;stroke-width:0.7;"/>
   </g>
   <g id="line2d_9">
    <path clip-path="url(#pa8b823277d)" d="M 250.61992 194.86016 
L 284.563808 501.001292 
L 284.563808 501.001292 
" style="fill:none;stroke:#0000ff;stroke-linecap:square;stroke-width:0.7;"/>
   </g>
   <g id="line2d_10">
    <path clip-path="url(#pa8b823277d)" d="M 293.26516 199.16776 
L 284.563808 501.001292 
L 284.563808 501.001292 
" style="fill:none;stroke:#ff0000;stroke-linecap:square;stroke-width:0.7;"/>
   </g>
   <g id="line2d_11">
    <path clip-path="url(#pa8b823277d)" d="M 395.737723 514.03971 
L 395.839985 512.414675 
L 395.722293 510.767161 
L 395.385113 509.103684 
L 394.829777 507.430822 
L 393.969585 505.587731 
L 392.852216 503.750106 
L 391.483016 501.92674 
L 389.70986 499.964126 
L 387.654919 498.040035 
L 385.329892 496.165424 
L 382.521718 494.202802 
L 379.430891 492.323883 
L 376.078064 490.541222 
L 372.200052 488.742727 
L 368.074235 487.083605 
L 363.73258 485.576712 
L 359.208728 484.233723 
L 354.199408 482.988485 
L 349.06574 481.954404 
L 343.853382 481.140676 
L 338.608691 480.55454 
L 333.378313 480.201207 
L 328.208766 480.08382 
L 323.146027 480.203424 
L 318.556909 480.527964 
L 314.135627 481.055528 
L 309.916438 481.782027 
L 305.932033 482.701833 
L 302.469473 483.72282 
L 299.259129 484.897532 
L 296.322452 486.21812 
L 293.871574 487.558985 
L 291.684572 489.009004 
L 289.922291 490.427036 
L 288.400653 491.923072 
L 287.126937 493.489955 
L 286.107238 495.120187 
L 285.404795 496.650631 
L 284.919109 498.220934 
L 284.652098 499.824888 
L 284.604821 501.45615 
L 284.777462 503.108268 
L 285.16934 504.774709 
L 285.778905 506.448885 
L 286.697952 508.291508 
L 287.873069 510.126662 
L 289.298632 511.945567 
L 291.13138 513.901071 
L 293.243606 515.815748 
L 295.623285 517.678697 
L 298.487333 519.626225 
L 301.630203 521.487589 
L 305.030899 523.250353 
L 308.955424 525.024952 
L 313.12218 526.6578 
L 317.498881 528.136245 
L 322.051616 529.448833 
L 327.084789 530.659597 
L 332.234767 531.65754 
L 337.455747 532.433784 
L 342.701293 532.981427 
L 347.924754 533.295597 
L 353.079671 533.373501 
L 358.1202 533.214446 
L 362.681921 532.853421 
L 367.069586 532.289988 
L 371.249197 531.528513 
L 375.188371 530.574896 
L 378.604175 529.523784 
L 381.763502 528.320379 
L 384.433875 527.081308 
L 386.852502 525.726368 
L 389.005613 524.263274 
L 390.73555 522.834196 
L 392.223783 521.32807 
L 393.463192 519.7521 
L 394.368993 518.265132 
L 395.060656 516.73255 
L 395.535448 515.160415 
L 395.737723 514.03971 
L 395.737723 514.03971 
" style="fill:none;stroke:#ff0000;stroke-linecap:square;stroke-width:0.7;"/>
   </g>
   <g id="line2d_12">
    <path clip-path="url(#pa8b823277d)" d="M 395.737723 514.03971 
L 395.839985 512.414675 
L 395.722293 510.767161 
L 395.385113 509.103684 
L 394.829777 507.430822 
L 393.969585 505.587731 
L 392.852216 503.750106 
L 391.483016 501.92674 
L 389.70986 499.964126 
L 387.654919 498.040035 
L 385.329892 496.165424 
L 382.521718 494.202802 
L 379.430891 492.323883 
L 376.078064 490.541222 
L 372.200052 488.742727 
L 368.074235 487.083605 
L 363.73258 485.576712 
L 359.208728 484.233723 
L 354.199408 482.988485 
L 349.06574 481.954404 
L 343.853382 481.140676 
L 338.608691 480.55454 
L 333.378313 480.201207 
L 328.208766 480.08382 
L 323.146027 480.203424 
L 318.556909 480.527964 
L 314.135627 481.055528 
L 309.916438 481.782027 
L 305.932033 482.701833 
L 302.469473 483.72282 
L 299.259129 484.897532 
L 296.322452 486.21812 
L 293.871574 487.558985 
L 291.684572 489.009004 
L 289.922291 490.427036 
L 288.400653 491.923072 
L 287.126937 493.489955 
L 286.107238 495.120187 
L 285.404795 496.650631 
L 284.919109 498.220934 
L 284.652098 499.824888 
L 284.604821 501.45615 
L 284.777462 503.108268 
L 285.16934 504.774709 
L 285.778905 506.448885 
L 286.697952 508.291508 
L 287.873069 510.126662 
L 289.298632 511.945567 
L 291.13138 513.901071 
L 293.243606 515.815748 
L 295.623285 517.678697 
L 298.487333 519.626225 
L 301.630203 521.487589 
L 305.030899 523.250353 
L 308.955424 525.024952 
L 313.12218 526.6578 
L 317.498881 528.136245 
L 322.051616 529.448833 
L 327.084789 530.659597 
L 332.234767 531.65754 
L 337.455747 532.433784 
L 342.701293 532.981427 
L 347.924754 533.295597 
L 353.079671 533.373501 
L 358.1202 533.214446 
L 362.681921 532.853421 
L 367.069586 532.289988 
L 371.249197 531.528513 
L 375.188371 530.574896 
L 378.604175 529.523784 
L 381.763502 528.320379 
L 384.433875 527.081308 
L 386.852502 525.726368 
L 389.005613 524.263274 
L 390.73555 522.834196 
L 392.223783 521.32807 
L 393.463192 519.7521 
L 394.368993 518.265132 
L 395.060656 516.73255 
L 395.535448 515.160415 
L 395.737723 514.03971 
L 395.737723 514.03971 
" style="fill:none;stroke:#0000ff;stroke-dasharray:2.59,1.12;stroke-dashoffset:0;stroke-width:0.7;"/>
   </g>
   <g id="line2d_13">
    <path clip-path="url(#pa8b823277d)" d="M 404.352923 212.50771 
L 404.455185 210.882675 
L 404.337493 209.235161 
L 404.000313 207.571684 
L 403.444977 205.898822 
L 402.584785 204.055731 
L 401.467416 202.218106 
L 400.098216 200.39474 
L 398.32506 198.432126 
L 396.270119 196.508035 
L 393.945092 194.633424 
L 391.136918 192.670802 
L 388.046091 190.791883 
L 384.693264 189.009222 
L 380.815252 187.210727 
L 376.689435 185.551605 
L 372.34778 184.044712 
L 367.823928 182.701723 
L 362.814608 181.456485 
L 357.68094 180.422404 
L 352.468582 179.608676 
L 347.223891 179.02254 
L 341.993513 178.669207 
L 336.823966 178.55182 
L 331.761227 178.671424 
L 327.172109 178.995964 
L 322.750827 179.523528 
L 318.531638 180.250027 
L 314.547233 181.169833 
L 311.084673 182.19082 
L 307.874329 183.365532 
L 304.937652 184.68612 
L 302.486774 186.026985 
L 300.299772 187.477004 
L 298.537491 188.895036 
L 297.015853 190.391072 
L 295.742137 191.957955 
L 294.722438 193.588187 
L 294.019995 195.118631 
L 293.534309 196.688934 
L 293.267298 198.292888 
L 293.220021 199.92415 
L 293.392662 201.576268 
L 293.78454 203.242709 
L 294.394105 204.916885 
L 295.313152 206.759508 
L 296.488269 208.594662 
L 297.913832 210.413567 
L 299.74658 212.369071 
L 301.858806 214.283748 
L 304.238485 216.146697 
L 307.102533 218.094225 
L 310.245403 219.955589 
L 313.646099 221.718353 
L 317.570624 223.492952 
L 321.73738 225.1258 
L 326.114081 226.604245 
L 330.666816 227.916833 
L 335.699989 229.127597 
L 340.849967 230.12554 
L 346.070947 230.901784 
L 351.316493 231.449427 
L 356.539954 231.763597 
L 361.694871 231.841501 
L 366.7354 231.682446 
L 371.297121 231.321421 
L 375.684786 230.757988 
L 379.864397 229.996513 
L 383.803571 229.042896 
L 387.219375 227.991784 
L 390.378702 226.788379 
L 393.049075 225.549308 
L 395.467702 224.194368 
L 397.620813 222.731274 
L 399.35075 221.302196 
L 400.838983 219.79607 
L 402.078392 218.2201 
L 402.984193 216.733132 
L 403.675856 215.20055 
L 404.150648 213.628415 
L 404.352923 212.50771 
L 404.352923 212.50771 
" style="fill:none;stroke:#ff0000;stroke-linecap:square;stroke-width:0.7;"/>
   </g>
   <g id="line2d_14">
    <path clip-path="url(#pa8b823277d)" d="M 447.060401 218.130256 
L 447.218871 215.965936 
L 447.128313 213.774361 
L 446.788955 211.561079 
L 446.201657 209.331693 
L 445.367905 207.091844 
L 444.28981 204.847203 
L 442.9701 202.603451 
L 441.412116 200.366267 
L 439.379505 197.864336 
L 437.056847 195.385897 
L 434.451583 192.938892 
L 431.572056 190.531157 
L 428.427492 188.170405 
L 424.634966 185.611645 
L 420.542685 183.130339 
L 416.166833 180.7363 
L 411.524713 178.438994 
L 406.132782 176.034517 
L 400.466699 173.769575 
L 394.553572 171.655006 
L 388.421694 169.700927 
L 382.100403 167.916688 
L 375.619944 166.310824 
L 369.011322 164.89102 
L 362.306157 163.664069 
L 355.536529 162.635841 
L 348.73483 161.811255 
L 341.933601 161.194257 
L 335.165384 160.787799 
L 328.462561 160.593826 
L 321.857202 160.613265 
L 315.380911 160.846024 
L 309.064674 161.290989 
L 302.938712 161.946031 
L 297.032334 162.808017 
L 291.3738 163.872821 
L 286.467555 165.012555 
L 281.807932 166.311203 
L 277.413356 167.763628 
L 273.301207 169.364086 
L 269.85521 170.925849 
L 266.662204 172.597396 
L 263.732416 174.373375 
L 261.075232 176.248095 
L 258.699163 178.215552 
L 256.829274 180.037167 
L 255.192259 181.922469 
L 253.792264 183.866685 
L 252.632831 185.864895 
L 251.716895 187.912041 
L 251.046774 190.002942 
L 250.624166 192.132304 
L 250.450138 194.294738 
L 250.525133 196.484772 
L 250.848959 198.69686 
L 251.420798 200.925405 
L 252.239202 203.164766 
L 253.302099 205.409274 
L 254.6068 207.653248 
L 256.150001 209.891009 
L 258.166298 212.394011 
L 260.473029 214.873963 
L 263.062804 217.322922 
L 265.927328 219.733042 
L 269.057424 222.096604 
L 272.834559 224.658974 
L 276.912227 227.144388 
L 281.274303 229.543019 
L 285.903536 231.84538 
L 291.282382 234.255931 
L 296.936583 236.527456 
L 302.839086 238.649085 
L 308.96165 240.610668 
L 315.274981 242.402819 
L 321.748873 244.016963 
L 328.352351 245.445379 
L 335.053821 246.681231 
L 341.821219 247.718606 
L 348.622166 248.552541 
L 355.424123 249.179047 
L 362.194545 249.595124 
L 368.901039 249.798784 
L 375.511518 249.789051 
L 381.994353 249.565972 
L 388.318527 249.130614 
L 394.453781 248.48506 
L 400.370762 247.632399 
L 406.041158 246.576711 
L 410.959233 245.445046 
L 415.631633 244.154227 
L 420.039883 242.70936 
L 424.166549 241.116157 
L 427.995314 239.38092 
L 431.173958 237.703427 
L 434.088839 235.92181 
L 436.730621 234.041778 
L 439.090841 232.069351 
L 440.946308 230.243619 
L 442.568624 228.354493 
L 443.953682 226.406757 
L 445.097976 224.405339 
L 445.99861 222.355305 
L 446.653304 220.261844 
L 447.060401 218.130256 
L 447.060401 218.130256 
" style="fill:none;stroke:#0000ff;stroke-linecap:square;stroke-width:0.7;"/>
   </g>
   <g id="text_1">
    <!-- $\mathcal{M}$ -->
    <g transform="translate(146.376 411.9632)scale(0.24 -0.24)">
     <defs>
      <path d="M 38.5 56.703125 
C 41.203125 43.703125 45.59375 22.296875 51.296875 10.703125 
C 53.5 6.390625 54.59375 4.203125 55.59375 4.203125 
C 56 4.203125 56.203125 4.203125 58 6 
C 65.59375 13.265625 70.796875 19.046875 77.796875 27.03125 
L 99.703125 52.453125 
C 98.296875 43.96875 94.703125 21.53125 94.703125 9.859375 
C 94.703125 7.171875 94.796875 4.578125 95.09375 1.875 
C 95.203125 0.796875 95.59375 -2.109375 99.796875 -2.109375 
C 104 -2.109375 111.59375 2.296875 111.59375 4.296875 
C 111.59375 4.890625 111 5 110.703125 5 
C 109.40625 5 107.40625 4.109375 106.296875 3.40625 
C 103.90625 3.71875 103.703125 5.3125 103.5 7.59375 
C 103.203125 10.78125 103.203125 13.78125 103.203125 14.1875 
C 103.203125 25.234375 107.59375 55.4375 110.5 67.8125 
C 110.59375 68.515625 110.703125 68.703125 110.703125 69.5 
C 110.703125 69.890625 110.59375 71 109.90625 71 
C 109.5 71 109.40625 70.890625 107.5 68.6875 
C 98.09375 57.34375 68.90625 22.4375 59 14.0625 
C 56.5 19.328125 54.703125 23.125 51.203125 37.0625 
C 48.296875 48.3125 46.59375 56.5625 44.90625 66.21875 
C 44.59375 67.609375 44.09375 70.296875 44.09375 70.5 
C 43.796875 71 43.296875 71 43 71 
C 41.203125 71 37 68.8125 36.703125 66.71875 
C 35.5 58.359375 33.5 45.203125 26.5 26.203125 
C 18.5 5 16.296875 5 14.40625 5 
C 13.09375 5 9.40625 5.796875 7.203125 7.78125 
C 6.703125 8.28125 6.5 8.28125 6.296875 8.28125 
C 4.90625 8.28125 2.703125 3.75 2.703125 0.9375 
C 2.703125 0.03125 2.703125 -1.1875 5.90625 -2.875 
C 8.40625 -4.203125 10.796875 -4.203125 11.296875 -4.203125 
C 17.5 -4.203125 23.40625 10.09375 25.40625 15.203125 
C 30.09375 26.5 35.703125 42.296875 38.5 56.703125 
z
" id="CMSY10-77"/>
     </defs>
     <use transform="scale(0.996264)" xlink:href="#CMSY10-77"/>
    </g>
   </g>
   <g id="text_2">
    <!-- $\Sigma_t$ -->
    <g transform="translate(534.06 467.962)scale(0.24 -0.24)">
     <defs>
      <path d="M 32.296875 32.765625 
C 33 33.5625 33 33.765625 33 34.0625 
C 33 34.4375 32.59375 35.046875 32.5 35.25 
L 12.796875 65.40625 
L 37 65.40625 
C 53.59375 65.40625 58.59375 61.8125 60.296875 46 
L 62.09375 46 
L 59.703125 68 
L 6.796875 68 
C 4.703125 68 4.59375 67.90625 4.59375 65.8125 
L 27.703125 30.375 
L 5.40625 1.890625 
C 4.703125 1 4.703125 0.90625 4.703125 0.703125 
C 4.703125 0 5.296875 0 6.796875 0 
L 59.703125 0 
L 62.09375 22.8125 
L 60.296875 22.8125 
C 58.703125 6.6875 53 3.40625 36.796875 3.40625 
L 9.203125 3.40625 
z
" id="CMR17-6"/>
      <path d="M 20.09375 40.09375 
L 29.296875 40.09375 
C 31.203125 40.09375 32.203125 40.09375 32.203125 41.890625 
C 32.203125 43 31.59375 43 29.59375 43 
L 20.796875 43 
L 24.5 57.6875 
C 24.90625 59.078125 24.90625 59.28125 24.90625 60 
C 24.90625 61.609375 23.59375 62.5 22.296875 62.5 
C 21.5 62.5 19.203125 62.203125 18.40625 58.984375 
L 14.5 43 
L 5.09375 43 
C 3.09375 43 2.203125 43 2.203125 41.09375 
C 2.203125 40.09375 2.90625 40.09375 4.796875 40.09375 
L 13.703125 40.09375 
L 7.09375 13.765625 
C 6.296875 10.28125 6 9.28125 6 7.984375 
C 6 3.296875 9.296875 -1 14.90625 -1 
C 25 -1 30.40625 13.5625 30.40625 14.25 
C 30.40625 14.859375 30 15.15625 29.40625 15.15625 
C 29.203125 15.15625 28.796875 15.15625 28.59375 14.75 
C 28.5 14.65625 28.40625 14.546875 27.703125 12.953125 
C 25.59375 7.984375 21 1 15.203125 1 
C 12.203125 1 12 3.5 12 5.6875 
C 12 5.78125 12 7.6875 12.296875 8.875 
z
" id="CMMI12-116"/>
     </defs>
     <use transform="scale(0.996264)" xlink:href="#CMR17-6"/>
     <use transform="translate(66.509881 -14.943915)scale(0.697382)" xlink:href="#CMMI12-116"/>
    </g>
   </g>
   <g id="text_3">
    <!-- $\Sigma_{t+\delta t}$ -->
    <g transform="translate(534.06 162.1224)scale(0.24 -0.24)">
     <defs>
      <path d="M 37.703125 23 
L 64.203125 23 
C 65.59375 23 67.296875 23 67.296875 24.6875 
C 67.296875 26.484375 65.703125 26.484375 64.203125 26.484375 
L 37.703125 26.484375 
L 37.703125 52.90625 
C 37.703125 54.296875 37.703125 56 36 56 
C 34.203125 56 34.203125 54.40625 34.203125 52.90625 
L 34.203125 26.484375 
L 7.703125 26.484375 
C 6.296875 26.484375 4.59375 26.484375 4.59375 24.796875 
C 4.59375 23 6.203125 23 7.703125 23 
L 34.203125 23 
L 34.203125 -3.40625 
C 34.203125 -4.796875 34.203125 -6.5 35.90625 -6.5 
C 37.703125 -6.5 37.703125 -4.90625 37.703125 -3.40625 
z
" id="CMR17-43"/>
      <path d="M 26 43.671875 
C 13.203125 40.578125 4 27.3125 4 15.640625 
C 4 4.984375 11.203125 -1 19.203125 -1 
C 31 -1 39 15.15625 39 28.40625 
C 39 37.375 34.796875 42.875 32.296875 46.15625 
C 28.59375 50.84375 22.59375 58.53125 22.59375 63.3125 
C 22.59375 65.015625 23.90625 68 28.296875 68 
C 31.40625 68 33.296875 66.90625 36.296875 65.203125 
C 37.203125 64.59375 39.5 63.3125 40.796875 63.3125 
C 42.90625 63.3125 44.40625 65.390625 44.40625 66.984375 
C 44.40625 68.890625 42.90625 69.1875 39.40625 69.984375 
C 34.703125 70.984375 33.296875 70.984375 31.59375 70.984375 
C 29.90625 70.984375 20.09375 70.984375 20.09375 60.8125 
C 20.09375 55.921875 22.59375 50.25 26 43.671875 
z
M 27.09375 41.703125 
C 30.90625 33.828125 32.40625 30.84375 32.40625 24.375 
C 32.40625 16.609375 28.203125 0.984375 19.296875 0.984375 
C 15.40625 0.984375 9.796875 3.578125 9.796875 12.828125 
C 9.796875 19.296875 13.5 38.109375 27.09375 41.703125 
z
" id="CMMI12-14"/>
     </defs>
     <use transform="scale(0.996264)" xlink:href="#CMR17-6"/>
     <use transform="translate(66.509881 -14.943915)scale(0.697382)" xlink:href="#CMMI12-116"/>
     <use transform="translate(91.16819 -14.943915)scale(0.697382)" xlink:href="#CMR17-43"/>
     <use transform="translate(141.368322 -14.943915)scale(0.697382)" xlink:href="#CMMI12-14"/>
     <use transform="translate(174.227141 -14.943915)scale(0.697382)" xlink:href="#CMMI12-116"/>
    </g>
   </g>
   <g id="text_4">
    <!-- $V$ -->
    <g transform="translate(340.218 209.506)scale(0.16 -0.16)">
     <defs>
      <path d="M 61.90625 56.875 
C 65.296875 62.25 68.40625 64.625 73.5 65.03125 
C 74.5 65.125 75.296875 65.125 75.296875 66.90625 
C 75.296875 67.3125 75.09375 67.90625 74.203125 67.90625 
C 72.40625 67.90625 68.09375 67.90625 66.296875 67.90625 
C 63.40625 67.90625 60.40625 67.90625 57.59375 67.90625 
C 56.796875 67.90625 55.796875 67.90625 55.796875 66.03125 
C 55.796875 65.125 56.703125 65.03125 57.09375 65.03125 
C 60.796875 64.734375 61.203125 62.953125 61.203125 61.75 
C 61.203125 60.265625 59.796875 57.96875 59.703125 57.875 
L 28.296875 8.4375 
L 21.296875 62.015625 
C 21.296875 65 26.5 65 27.59375 65 
C 29.09375 65 30 65 30 66.90625 
C 30 67.90625 28.90625 67.90625 28.59375 67.90625 
C 26.90625 67.90625 24.90625 67.90625 23.203125 67.90625 
L 17.59375 67.90625 
C 10.296875 67.90625 7.296875 67.90625 7.203125 67.90625 
C 6.59375 67.90625 5.40625 67.90625 5.40625 66.09375 
C 5.40625 65 6.09375 65 7.703125 65 
C 12.796875 65 13.09375 64.09375 13.40625 61.625 
L 21.40625 0.375 
C 21.703125 -1.703125 21.703125 -2 23.09375 -2 
C 24.296875 -2 24.796875 -1.703125 25.796875 -0.125 
z
" id="CMMI12-86"/>
     </defs>
     <use transform="scale(0.996264)" xlink:href="#CMMI12-86"/>
    </g>
   </g>
   <g id="text_5">
    <!-- $V$ -->
    <g transform="translate(340.218 511.038)scale(0.16 -0.16)">
     <use transform="scale(0.996264)" xlink:href="#CMMI12-86"/>
    </g>
   </g>
   <g id="text_6">
    <!-- $\delta V$ -->
    <g transform="translate(265.26576 194.4294)scale(0.16 -0.16)">
     <use transform="scale(0.996264)" xlink:href="#CMMI12-14"/>
     <use transform="translate(46.941386 0)scale(0.996264)" xlink:href="#CMMI12-86"/>
    </g>
   </g>
   <g id="text_7">
    <!-- $x^\mu = \{t,x^i\}$ -->
    <g transform="translate(176.5292 515.3456)scale(0.16 -0.16)">
     <defs>
      <path d="M 47.40625 40.71875 
C 44.203125 40.109375 43 37.71875 43 35.828125 
C 43 33.421875 44.90625 32.625 46.296875 32.625 
C 49.296875 32.625 51.40625 35.21875 51.40625 37.921875 
C 51.40625 42.109375 46.59375 44 42.40625 44 
C 36.296875 44 32.90625 38.015625 32 36.125 
C 29.703125 44 23.5 44 21.703125 44 
C 11.5 44 6.09375 30.9375 6.09375 28.734375 
C 6.09375 28.34375 6.5 27.84375 7.203125 27.84375 
C 8 27.84375 8.203125 28.4375 8.40625 28.84375 
C 11.796875 39.921875 18.5 42.015625 21.40625 42.015625 
C 25.90625 42.015625 26.796875 37.8125 26.796875 35.421875 
C 26.796875 33.234375 26.203125 30.9375 25 26.140625 
L 21.59375 12.46875 
C 20.09375 6.484375 17.203125 1 11.90625 1 
C 11.40625 1 8.90625 1 6.796875 2.296875 
C 10.40625 3 11.203125 5.984375 11.203125 7.1875 
C 11.203125 9.1875 9.703125 10.375 7.796875 10.375 
C 5.40625 10.375 2.796875 8.28125 2.796875 5.09375 
C 2.796875 0.890625 7.5 -1 11.796875 -1 
C 16.59375 -1 20 2.796875 22.09375 6.890625 
C 23.703125 1 28.703125 -1 32.40625 -1 
C 42.59375 -1 48 12.078125 48 14.265625 
C 48 14.765625 47.59375 15.171875 47 15.171875 
C 46.09375 15.171875 46 14.671875 45.703125 13.875 
C 43 5.09375 37.203125 1 32.703125 1 
C 29.203125 1 27.296875 3.59375 27.296875 7.6875 
C 27.296875 9.875 27.703125 11.46875 29.296875 18.0625 
L 32.796875 31.625 
C 34.296875 37.625 37.703125 42.015625 42.296875 42.015625 
C 42.5 42.015625 45.296875 42.015625 47.40625 40.71875 
z
" id="CMMI12-120"/>
      <path d="M 14.40625 2.1875 
C 16.90625 -0.09375 20.59375 -1 24 -1 
C 30.40625 -1 34.796875 3.25 37.09375 6.328125 
C 38.09375 1.078125 42.296875 -1 45.796875 -1 
C 48.796875 -1 51.203125 0.78125 53 4.328125 
C 54.59375 7.703125 56 13.734375 56 14.109375 
C 56 14.609375 55.59375 15 55 15 
C 54.09375 15 54 14.5 53.59375 13.03125 
C 52.09375 7.203125 50.203125 1 46.09375 1 
C 43.203125 1 43 3.578125 43 5.59375 
C 43 7.875 43.90625 11.484375 44.59375 14.46875 
L 47.40625 25.234375 
C 47.796875 27.140625 48.90625 31.609375 49.40625 33.421875 
C 50 35.8125 51.09375 40.109375 51.09375 40.5 
C 51.09375 42 49.90625 43 48.40625 43 
C 47.5 43 45.40625 42.59375 44.59375 39.609375 
L 37.59375 11.875 
C 37.09375 9.875 37.09375 9.671875 35.796875 8.078125 
C 34.59375 6.390625 30.703125 1 24.40625 1 
C 18.796875 1 17 5.09375 17 9.765625 
C 17 12.671875 17.90625 16.15625 18.296875 17.859375 
L 22.796875 35.828125 
C 23.296875 37.71875 24.09375 40.90625 24.09375 41.515625 
C 24.09375 43.109375 22.796875 44 21.5 44 
C 20.59375 44 18.40625 43.703125 17.59375 40.5 
L 3.09375 -17.296875 
C 3 -17.796875 2.796875 -18.390625 2.796875 -19 
C 2.796875 -20.5 4 -21.5 5.5 -21.5 
C 8.40625 -21.5 9 -19.1875 9.703125 -16.40625 
z
" id="CMMI12-22"/>
      <path d="M 64.296875 31.515625 
C 65.796875 31.515625 67.296875 31.515625 67.296875 33.203125 
C 67.296875 35 65.59375 35 63.90625 35 
L 8 35 
C 6.296875 35 4.59375 35 4.59375 33.203125 
C 4.59375 31.515625 6.09375 31.515625 7.59375 31.515625 
z
M 63.90625 14 
C 65.59375 14 67.296875 14 67.296875 15.796875 
C 67.296875 17.484375 65.796875 17.484375 64.296875 17.484375 
L 7.59375 17.484375 
C 6.09375 17.484375 4.59375 17.484375 4.59375 15.796875 
C 4.59375 14 6.296875 14 8 14 
z
" id="CMR17-61"/>
      <path d="M 28.296875 61.90625 
C 28.296875 65.953125 30.90625 72.40625 41.796875 72.40625 
C 42.296875 72.53125 42.703125 73 42.703125 73.71875 
C 42.703125 75 41.90625 75 40.796875 75 
C 30.796875 75 21.703125 69.859375 21.59375 62.390625 
L 21.59375 39.40625 
C 21.59375 35.46875 21.59375 32.234375 17.59375 28.921875 
C 14.09375 26 10.296875 26 8.09375 26 
C 7.59375 25.890625 7.203125 25.40625 7.203125 24.6875 
C 7.203125 23.5 7.796875 23.5 8.796875 23.5 
C 15.40625 23.5 20.203125 19.90625 21.296875 15 
C 21.59375 13.90625 21.59375 13.703125 21.59375 10.09375 
L 21.59375 -9.703125 
C 21.59375 -13.90625 21.59375 -17.09375 26.40625 -20.90625 
C 30.296875 -23.90625 36.90625 -25 40.796875 -25 
C 41.90625 -25 42.703125 -25 42.703125 -23.90625 
C 42.703125 -22.703125 42.09375 -22.703125 41.09375 -22.703125 
C 34.796875 -22.703125 29.90625 -19.5 28.59375 -14.375 
C 28.296875 -13.484375 28.296875 -13.28125 28.296875 -9.671875 
L 28.296875 11.359375 
C 28.296875 15.984375 27.5 17.6875 24.296875 20.890625 
C 22.203125 23 19.296875 24 16.5 24.796875 
C 24.703125 27.125 28.296875 31.78125 28.296875 37.640625 
z
" id="CMSY10-102"/>
      <path d="M 19.5 -0.484375 
C 19.5 5.359375 17.59375 9.671875 13.5 9.671875 
C 10.296875 9.671875 8.703125 7.078125 8.703125 4.890625 
C 8.703125 2.6875 10.203125 0 13.59375 0 
C 14.90625 0 16 0.40625 16.90625 1.296875 
C 17.09375 1.5 17.203125 1.5 17.296875 1.5 
C 17.5 1.5 17.5 0.078125 17.5 -0.421875 
C 17.5 -3.75 16.90625 -10.296875 11.09375 -16.875 
C 10 -18.078125 10 -18.28125 10 -18.484375 
C 10 -19 10.5 -19.5 11 -19.5 
C 11.796875 -19.5 19.5 -12.046875 19.5 -0.484375 
z
" id="CMMI12-59"/>
      <path d="M 28.296875 14.265625 
C 28.296875 14.765625 27.90625 15.171875 27.296875 15.171875 
C 26.40625 15.171875 26.296875 14.875 25.796875 13.171875 
C 23.203125 4.09375 19.09375 1 15.796875 1 
C 14.59375 1 13.203125 1.296875 13.203125 4.296875 
C 13.203125 6.984375 14.40625 9.984375 15.5 12.96875 
L 22.5 31.53125 
C 22.796875 32.328125 23.5 34.125 23.5 36.015625 
C 23.5 40.21875 20.5 44 15.59375 44 
C 6.40625 44 2.703125 29.53125 2.703125 28.734375 
C 2.703125 28.34375 3.09375 27.84375 3.796875 27.84375 
C 4.703125 27.84375 4.796875 28.234375 5.203125 29.625 
C 7.59375 37.9375 11.40625 41.90625 15.296875 41.90625 
C 16.203125 41.90625 17.90625 41.90625 17.90625 38.71875 
C 17.90625 36.125 16.59375 32.828125 15.796875 30.640625 
L 8.796875 12.078125 
C 8.203125 10.484375 7.59375 8.875 7.59375 7.078125 
C 7.59375 2.59375 10.703125 -1 15.5 -1 
C 24.703125 -1 28.296875 13.578125 28.296875 14.265625 
z
M 27.5 62.703125 
C 27.5 64.203125 26.296875 66 24.09375 66 
C 21.796875 66 19.203125 63.796875 19.203125 61.203125 
C 19.203125 58.71875 21.296875 57.921875 22.5 57.921875 
C 25.203125 57.921875 27.5 60.515625 27.5 62.703125 
z
" id="CMMI12-105"/>
      <path d="M 21.59375 -12.0625 
C 21.59375 -16.078125 19 -22.5 8.09375 -22.5 
C 7.59375 -22.625 7.203125 -23.0625 7.203125 -23.765625 
C 7.203125 -25 8.296875 -25 9.203125 -25 
C 18.90625 -25 28.203125 -20.109375 28.296875 -12.53125 
L 28.296875 10.234375 
C 28.296875 14.125 28.296875 17.328125 32.296875 20.609375 
C 35.796875 23.5 39.59375 23.5 41.796875 23.5 
C 42.296875 23.609375 42.703125 24.09375 42.703125 24.8125 
C 42.703125 26 42.09375 26 41.09375 26 
C 34.5 26 29.703125 29.625 28.59375 34.59375 
C 28.296875 35.6875 28.296875 35.890625 28.296875 39.546875 
L 28.296875 59.546875 
C 28.296875 63.796875 28.296875 67.015625 23.5 70.859375 
C 19.5 73.984375 12.59375 75 9.203125 75 
C 8.296875 75 7.203125 75 7.203125 73.75 
C 7.203125 72.59375 7.796875 72.59375 8.796875 72.59375 
C 15.09375 72.59375 20 69.359375 21.296875 64.21875 
C 21.59375 63.3125 21.59375 63.109375 21.59375 59.484375 
L 21.59375 38.3125 
C 21.59375 33.671875 22.40625 31.953125 25.59375 28.734375 
C 27.703125 26.609375 30.59375 25.59375 33.40625 24.796875 
C 25.203125 22.484375 21.59375 17.859375 21.59375 12.046875 
z
" id="CMSY10-103"/>
     </defs>
     <use transform="scale(0.996264)" xlink:href="#CMMI12-120"/>
     <use transform="translate(55.43406 36.153639)scale(0.697382)" xlink:href="#CMMI12-22"/>
     <use transform="translate(124.690005 0)scale(0.996264)" xlink:href="#CMR17-61"/>
     <use transform="translate(224.078802 0)scale(0.996264)" xlink:href="#CMSY10-102"/>
     <use transform="translate(273.892185 0)scale(0.996264)" xlink:href="#CMMI12-116"/>
     <use transform="translate(309.118516 0)scale(0.996264)" xlink:href="#CMMI12-59"/>
     <use transform="translate(352.820098 0)scale(0.996264)" xlink:href="#CMMI12-120"/>
     <use transform="translate(408.254157 36.153639)scale(0.697382)" xlink:href="#CMMI12-105"/>
     <use transform="translate(432.047197 0)scale(0.996264)" xlink:href="#CMSY10-103"/>
    </g>
   </g>
   <g id="text_8">
    <!-- $x^\mu = \{t+\delta t,x^i\}$ -->
    <g transform="translate(241.1432 144.892)scale(0.16 -0.16)">
     <use transform="scale(0.996264)" xlink:href="#CMMI12-120"/>
     <use transform="translate(55.43406 36.153639)scale(0.697382)" xlink:href="#CMMI12-22"/>
     <use transform="translate(124.690005 0)scale(0.996264)" xlink:href="#CMR17-61"/>
     <use transform="translate(224.078802 0)scale(0.996264)" xlink:href="#CMSY10-102"/>
     <use transform="translate(273.892185 0)scale(0.996264)" xlink:href="#CMMI12-116"/>
     <use transform="translate(331.257723 0)scale(0.996264)" xlink:href="#CMR17-43"/>
     <use transform="translate(425.111718 0)scale(0.996264)" xlink:href="#CMMI12-14"/>
     <use transform="translate(472.053104 0)scale(0.996264)" xlink:href="#CMMI12-116"/>
     <use transform="translate(507.279434 0)scale(0.996264)" xlink:href="#CMMI12-59"/>
     <use transform="translate(550.981017 0)scale(0.996264)" xlink:href="#CMMI12-120"/>
     <use transform="translate(606.415076 36.153639)scale(0.697382)" xlink:href="#CMMI12-105"/>
     <use transform="translate(630.208115 0)scale(0.996264)" xlink:href="#CMSY10-103"/>
    </g>
   </g>
   <g id="text_9">
    <!-- $\delta t \cdot \alpha n^\mu$ -->
    <g style="fill:#0000ff;" transform="translate(428.95456 355.9644)scale(0.16 -0.16)">
     <defs>
      <path d="M 19.203125 25.296875 
C 19.203125 28.203125 16.796875 30.59375 13.90625 30.59375 
C 11 30.59375 8.59375 28.203125 8.59375 25.296875 
C 8.59375 22.390625 11 20 13.90625 20 
C 16.796875 20 19.203125 22.390625 19.203125 25.296875 
z
" id="CMSY10-1"/>
      <path d="M 46.296875 25.25 
C 46.296875 34.921875 40.796875 43.984375 30.203125 43.984375 
C 17.09375 43.984375 4 29.71875 4 15.5625 
C 4 6.890625 9.40625 -1 19.59375 -1 
C 25.796875 -1 33.203125 1.390625 40.296875 7.375 
C 41.703125 1.796875 44.796875 -1 49.09375 -1 
C 54.5 -1 57.203125 4.59375 57.203125 5.890625 
C 57.203125 6.78125 56.5 6.78125 56.203125 6.78125 
C 55.40625 6.78125 55.296875 6.484375 55 5.6875 
C 54.09375 3.1875 51.796875 1 49.40625 1 
C 46.296875 1 46.296875 7.375 46.296875 13.46875 
C 56.5 25.640625 58.90625 38.21875 58.90625 38.3125 
C 58.90625 39.21875 58.09375 39.21875 57.796875 39.21875 
C 56.90625 39.21875 56.796875 38.921875 56.40625 37.125 
C 55.09375 32.734375 52.5 24.953125 46.296875 16.765625 
z
M 40 9.78125 
C 31.203125 1.890625 23.296875 1 19.796875 1 
C 12.703125 1 10.703125 7.28125 10.703125 11.96875 
C 10.703125 16.25 12.90625 26.4375 16 31.9375 
C 20.09375 38.921875 25.703125 42 30.203125 42 
C 39.90625 42 39.90625 29.328125 39.90625 20.953125 
C 39.90625 18.46875 39.796875 15.875 39.796875 13.375 
C 39.796875 11.375 39.90625 10.875 40 9.78125 
z
" id="CMMI12-11"/>
      <path d="M 20.59375 29.234375 
C 20.796875 29.84375 23.296875 34.828125 27 38.015625 
C 29.59375 40.40625 33 42.015625 36.90625 42.015625 
C 40.90625 42.015625 42.296875 39.015625 42.296875 35.03125 
C 42.296875 29.34375 38.203125 17.96875 36.203125 12.578125 
C 35.296875 10.171875 34.796875 8.875 34.796875 7.078125 
C 34.796875 2.59375 37.90625 -1 42.703125 -1 
C 52 -1 55.5 13.671875 55.5 14.265625 
C 55.5 14.765625 55.09375 15.171875 54.5 15.171875 
C 53.59375 15.171875 53.5 14.875 53 13.171875 
C 50.703125 4.984375 46.90625 1 43 1 
C 42 1 40.40625 1 40.40625 4.203125 
C 40.40625 6.703125 41.5 9.703125 42.09375 11.09375 
C 44.09375 16.609375 48.296875 27.8125 48.296875 33.515625 
C 48.296875 39.5 44.796875 44 37.203125 44 
C 28.296875 44 23.59375 37.734375 21.796875 35.234375 
C 21.5 40.90625 17.40625 44 13 44 
C 9.796875 44 7.59375 42.109375 5.90625 38.71875 
C 4.09375 35.125 2.703125 29.140625 2.703125 28.734375 
C 2.703125 28.34375 3.09375 27.84375 3.796875 27.84375 
C 4.59375 27.84375 4.703125 27.9375 5.296875 30.234375 
C 6.90625 36.328125 8.703125 42.015625 12.703125 42.015625 
C 15 42.015625 15.796875 40.40625 15.796875 37.421875 
C 15.796875 35.21875 14.796875 31.328125 14.09375 28.234375 
L 11.296875 17.46875 
C 10.90625 15.5625 9.796875 11.078125 9.296875 9.28125 
C 8.59375 6.6875 7.5 2 7.5 1.5 
C 7.5 0.09375 8.59375 -1 10.09375 -1 
C 11.296875 -1 12.703125 -0.40625 13.5 1.09375 
C 13.703125 1.59375 14.59375 5.09375 15.09375 7.078125 
L 17.296875 16.0625 
z
" id="CMMI12-110"/>
     </defs>
     <use transform="scale(0.996264)" xlink:href="#CMMI12-14"/>
     <use transform="translate(46.941386 0)scale(0.996264)" xlink:href="#CMMI12-116"/>
     <use transform="translate(104.306923 0)scale(0.996264)" xlink:href="#CMSY10-1"/>
     <use transform="translate(154.120215 0)scale(0.996264)" xlink:href="#CMMI12-11"/>
     <use transform="translate(216.801238 0)scale(0.996264)" xlink:href="#CMMI12-110"/>
     <use transform="translate(275.031285 36.153639)scale(0.697382)" xlink:href="#CMMI12-22"/>
    </g>
   </g>
   <g id="text_10">
    <!-- $\delta t \cdot t^\mu$ -->
    <g style="fill:#ff0000;" transform="translate(353.1408 364.14884)scale(0.16 -0.16)">
     <use transform="scale(0.996264)" xlink:href="#CMMI12-14"/>
     <use transform="translate(46.941386 0)scale(0.996264)" xlink:href="#CMMI12-116"/>
     <use transform="translate(104.306923 0)scale(0.996264)" xlink:href="#CMSY10-1"/>
     <use transform="translate(154.120215 0)scale(0.996264)" xlink:href="#CMMI12-116"/>
     <use transform="translate(189.346545 36.153639)scale(0.697382)" xlink:href="#CMMI12-22"/>
    </g>
   </g>
   <g id="text_11">
    <!-- $N^\mu$ -->
    <g style="fill:#ff0000;" transform="translate(219.6052 381.81)scale(0.16 -0.16)">
     <defs>
      <path d="M 74 57.78125 
C 75.09375 62.09375 76.703125 65.09375 84.296875 65.09375 
C 84.59375 65.09375 85.796875 65.09375 85.796875 66.859375 
C 85.796875 68 84.90625 68 84.5 68 
C 82.5 68 77.40625 68 75.40625 68 
L 70.59375 68 
C 69.203125 68 67.40625 68 66 68 
C 65.40625 68 64.203125 68 64.203125 66.09375 
C 64.203125 65.09375 65 65.09375 65.703125 65.09375 
C 71.703125 65.09375 72.09375 62.796875 72.09375 60.984375 
C 72.09375 60.09375 72 59.78125 71.703125 58.390625 
L 60.40625 13.28125 
L 39 66.390625 
C 38.296875 68 38.203125 68 36 68 
L 23.796875 68 
C 21.796875 68 20.90625 68 20.90625 66.09375 
C 20.90625 65.09375 21.59375 65.09375 23.5 65.09375 
C 24 65.09375 29.90625 65.09375 29.90625 64.296875 
C 29.90625 64.09375 29.703125 63.296875 29.59375 63 
L 16.296875 9.921875 
C 15.09375 5 12.703125 2.90625 6.09375 2.90625 
C 5.59375 2.90625 4.59375 2.90625 4.59375 1.046875 
C 4.59375 0 5.59375 0 5.90625 0 
C 7.90625 0 13 0 15 0 
L 19.796875 0 
C 21.203125 0 22.90625 0 24.296875 0 
C 25 0 26.09375 0 26.09375 1.90625 
C 26.09375 2.8125 25.09375 2.90625 24.703125 2.90625 
C 21.40625 2.90625 18.203125 3.5 18.203125 7.09375 
C 18.203125 7.890625 18.40625 8.78125 18.59375 9.578125 
L 32.09375 63 
C 32.703125 62 32.703125 61.8125 33.09375 60.90625 
L 56.90625 1.796875 
C 57.40625 0.59375 57.59375 0 58.5 0 
C 59.5 0 59.59375 0.296875 60 2 
z
" id="CMMI12-78"/>
     </defs>
     <use transform="scale(0.996264)" xlink:href="#CMMI12-78"/>
     <use transform="translate(88.521773 36.153639)scale(0.697382)" xlink:href="#CMMI12-22"/>
    </g>
   </g>
   <g id="text_12">
    <!-- $\tilde{N}^\mu$ -->
    <g style="fill:#0000ff;" transform="translate(189.452 312.8884)scale(0.16 -0.16)">
     <defs>
      <path d="M 37.5 65.375 
C 34.09375 62.1875 32.203125 60.390625 29.09375 60.390625 
C 26.90625 60.390625 25.40625 61.4375 23.296875 62.875 
C 21.296875 64.234375 19.703125 65.375 17.5 65.375 
C 13.90625 65.375 11.40625 62.5625 7.203125 58.09375 
L 8.296875 57 
C 11.703125 60.15625 13.59375 62 16.703125 62 
C 18.90625 62 20.40625 60.9375 22.5 59.5 
C 24.5 58.15625 26.09375 57 28.296875 57 
C 31.90625 57 34.40625 59.8125 38.59375 64.28125 
z
" id="CMR17-126"/>
     </defs>
     <use transform="translate(29.544801 25.189733)scale(0.996264)" xlink:href="#CMR17-126"/>
     <use transform="scale(0.996264)" xlink:href="#CMMI12-78"/>
     <use transform="translate(88.521773 36.153639)scale(0.697382)" xlink:href="#CMMI12-22"/>
    </g>
   </g>
   <g id="text_13">
    <!-- $H$ -->
    <g style="fill:#ff0000;" transform="translate(274.31172 312.8884)scale(0.16 -0.16)">
     <defs>
      <path d="M 74.796875 60.734375 
C 75.703125 64.109375 75.90625 65.109375 83 65.109375 
C 84.796875 65.109375 85.796875 65.109375 85.796875 66.90625 
C 85.796875 68 84.90625 68 84.296875 68 
C 82.5 68 80.40625 68 78.5 68 
L 66.703125 68 
C 64.796875 68 62.703125 68 60.796875 68 
C 60.09375 68 58.90625 68 58.90625 66.109375 
C 58.90625 65.109375 59.59375 65.109375 61.5 65.109375 
C 67.5 65.109375 67.5 64.3125 67.5 63.21875 
C 67.5 63.03125 67.5 62.421875 67.09375 60.9375 
L 61 36.890625 
L 30.796875 36.890625 
L 36.796875 60.734375 
C 37.703125 64.109375 37.90625 65.109375 45 65.109375 
C 46.796875 65.109375 47.796875 65.109375 47.796875 66.90625 
C 47.796875 68 46.90625 68 46.296875 68 
C 44.5 68 42.40625 68 40.5 68 
L 28.703125 68 
C 26.796875 68 24.703125 68 22.796875 68 
C 22.09375 68 20.90625 68 20.90625 66.109375 
C 20.90625 65.109375 21.59375 65.109375 23.5 65.109375 
C 29.5 65.109375 29.5 64.3125 29.5 63.21875 
C 29.5 63.03125 29.5 62.421875 29.09375 60.921875 
L 15.59375 7.375 
C 14.703125 3.890625 14.5 2.890625 7.59375 2.890625 
C 5.296875 2.890625 4.59375 2.890625 4.59375 1 
C 4.59375 0 5.703125 0 6 0 
C 7.796875 0 9.90625 0 11.796875 0 
L 23.59375 0 
C 25.5 0 27.59375 0 29.5 0 
C 30.296875 0 31.40625 0 31.40625 1.890625 
C 31.40625 2.890625 30.5 2.890625 29 2.890625 
C 22.90625 2.890625 22.90625 3.6875 22.90625 4.6875 
C 22.90625 4.796875 22.90625 5.484375 23.09375 6.28125 
L 30 34 
L 60.296875 34 
C 58.59375 27.390625 53.5 6.5 53.296875 5.875 
C 52.203125 2.890625 50.59375 2.890625 44.703125 2.890625 
C 43.5 2.890625 42.59375 2.890625 42.59375 1 
C 42.59375 0 43.703125 0 44 0 
C 45.796875 0 47.90625 0 49.796875 0 
L 61.59375 0 
C 63.5 0 65.59375 0 67.5 0 
C 68.296875 0 69.40625 0 69.40625 1.890625 
C 69.40625 2.890625 68.5 2.890625 67 2.890625 
C 60.90625 2.890625 60.90625 3.6875 60.90625 4.6875 
C 60.90625 4.796875 60.90625 5.484375 61.09375 6.28125 
z
" id="CMMI12-72"/>
     </defs>
     <use transform="scale(0.996264)" xlink:href="#CMMI12-72"/>
    </g>
   </g>
   <g id="text_14">
    <!-- $\tilde{H}$ -->
    <g style="fill:#0000ff;" transform="translate(249.7584 347.3492)scale(0.16 -0.16)">
     <use transform="translate(26.835083 25.189733)scale(0.996264)" xlink:href="#CMR17-126"/>
     <use transform="scale(0.996264)" xlink:href="#CMMI12-72"/>
    </g>
   </g>
   <g id="text_15">
    <!-- $\delta t \cdot \beta^i$ -->
    <g transform="translate(411.2934 212.52132)scale(0.12 -0.12)">
     <defs>
      <path d="M 56.59375 57.828125 
C 56.59375 63.765625 51.5 70 42.40625 70 
C 29.5 70 21.296875 54.328125 18.703125 44 
L 2.90625 -18.3125 
C 2.703125 -19.109375 3.296875 -19.3125 3.796875 -19.3125 
C 4.5 -19.3125 5 -19.21875 5.09375 -18.71875 
L 12.09375 9.15625 
C 13.09375 3.578125 18.59375 -1 24.5 -1 
C 38.796875 -1 52.296875 10.15625 52.296875 24.984375 
C 52.296875 28.765625 51.40625 32.546875 49.296875 35.734375 
C 48.09375 37.625 46.59375 39.015625 45 40.21875 
C 52.203125 43.984375 56.59375 50 56.59375 57.828125 
z
M 39.203125 40.3125 
C 37.59375 39.71875 36 39.515625 34.09375 39.515625 
C 32.703125 39.515625 31.40625 39.421875 29.59375 40.015625 
C 30.59375 40.71875 32.09375 40.90625 34.203125 40.90625 
C 36 40.90625 37.796875 40.71875 39.203125 40.3125 
z
M 51.40625 58.71875 
C 51.40625 53.28125 48.703125 45.359375 42.203125 41.703125 
C 40.296875 42.46875 37.703125 43 35.5 43 
C 33.40625 43 27.40625 43 27.40625 39.921875 
C 27.40625 37.328125 32.90625 37.328125 34.59375 37.328125 
C 37.203125 37.328125 39.5 38 41.90625 38.8125 
C 45.09375 36.21875 46.5 32.828125 46.5 27.859375 
C 46.5 22.078125 44.90625 17.421875 43 13.140625 
C 39.703125 5.765625 31.90625 1 25 1 
C 17.703125 1 13.90625 6.75 13.90625 13.5 
C 13.90625 14.40625 13.90625 15.703125 14.296875 17.171875 
L 20.796875 43.296875 
C 24.09375 56.296875 32.5 68.015625 42.203125 68.015625 
C 49.40625 68.015625 51.40625 63.0625 51.40625 58.71875 
z
" id="CMMI12-12"/>
     </defs>
     <use transform="scale(0.996264)" xlink:href="#CMMI12-14"/>
     <use transform="translate(46.941386 0)scale(0.996264)" xlink:href="#CMMI12-116"/>
     <use transform="translate(104.306923 0)scale(0.996264)" xlink:href="#CMSY10-1"/>
     <use transform="translate(154.120215 0)scale(0.996264)" xlink:href="#CMMI12-12"/>
     <use transform="translate(214.714231 36.153639)scale(0.697382)" xlink:href="#CMMI12-105"/>
    </g>
   </g>
   <g id="text_16">
    <!-- Time $t\cdot m $ -->
    <g transform="translate(74.86984 136.2768)scale(0.16 -0.16)">
     <defs>
      <path d="M 36.203125 62 
L 44.5 62 
C 45.703125 62 46.90625 62 48.09375 62 
L 60.59375 62 
L 60.59375 68.375 
L 3.40625 68.375 
L 3.40625 62 
L 15.90625 62 
C 17.09375 62 18.296875 62 19.5 62 
L 27.796875 62 
L 27.796875 -0.5 
L 36.203125 -0.5 
z
" id="CMSS17-84"/>
      <path d="M 15.296875 65.359375 
L 6.90625 65.359375 
L 6.90625 57 
L 15.296875 57 
z
M 14.796875 42.796875 
L 7.40625 42.796875 
L 7.40625 0 
L 14.796875 0 
z
" id="CMSS17-105"/>
      <path d="M 67 29.328125 
C 67 36.0625 65.296875 44 54.09375 44 
C 46.59375 44 42.09375 39.3125 40.09375 36.421875 
C 38.296875 41.71875 34.09375 44 28.09375 44 
C 21.296875 44 17 40.125 14.703125 37.328125 
L 14.703125 43.09375 
L 7.40625 43.09375 
L 7.40625 0 
L 15 0 
L 15 24.359375 
C 15 30.296875 17.203125 37.9375 24.296875 37.9375 
C 33.40625 37.9375 33.40625 31.5 33.40625 28.578125 
L 33.40625 0 
L 41 0 
L 41 24.359375 
C 41 30.296875 43.203125 37.9375 50.296875 37.9375 
C 59.40625 37.9375 59.40625 31.5 59.40625 28.578125 
L 59.40625 0 
L 67 0 
z
" id="CMSS17-109"/>
      <path d="M 39.09375 21.515625 
C 39.09375 24.84375 38.90625 31.296875 35.703125 36.640625 
C 32.203125 42.390625 26.5 44 22.203125 44 
C 11.796875 44 3 34.1875 3 21.484375 
C 3 9.09375 12.09375 -1 23.59375 -1 
C 28.09375 -1 33.59375 0.296875 38.59375 3.875 
C 38.59375 4.28125 38.40625 6.46875 38.296875 6.5625 
C 38.296875 6.765625 38 9.84375 38 10.25 
C 33.203125 6.359375 27.703125 5.078125 23.703125 5.078125 
C 17.296875 5.078125 10.40625 10.421875 10.09375 21.515625 
z
M 10.90625 27 
C 12.203125 32.5625 16.59375 37.828125 22.203125 37.828125 
C 23.703125 37.828125 30.703125 37.828125 32.5 27 
z
" id="CMSS17-101"/>
      <path d="M 20.59375 29.234375 
C 20.796875 29.84375 23.296875 34.828125 27 38.015625 
C 29.59375 40.40625 33 42.015625 36.90625 42.015625 
C 40.90625 42.015625 42.296875 39.015625 42.296875 35.03125 
C 42.296875 34.421875 42.296875 32.4375 41.09375 27.734375 
L 38.59375 17.46875 
C 37.796875 14.46875 35.90625 7.078125 35.703125 5.984375 
C 35.296875 4.484375 34.703125 1.890625 34.703125 1.5 
C 34.703125 0.09375 35.796875 -1 37.296875 -1 
C 40.296875 -1 40.796875 1.296875 41.703125 4.890625 
L 47.703125 28.734375 
C 47.90625 29.53125 53.09375 42.015625 64.09375 42.015625 
C 68.09375 42.015625 69.5 39.015625 69.5 35.03125 
C 69.5 29.4375 65.59375 18.5625 63.40625 12.578125 
C 62.5 10.171875 62 8.875 62 7.078125 
C 62 2.59375 65.09375 -1 69.90625 -1 
C 79.203125 -1 82.703125 13.671875 82.703125 14.265625 
C 82.703125 14.765625 82.296875 15.171875 81.703125 15.171875 
C 80.796875 15.171875 80.703125 14.875 80.203125 13.171875 
C 77.90625 5.1875 74.203125 1 70.203125 1 
C 69.203125 1 67.59375 1 67.59375 4.203125 
C 67.59375 6.8125 68.796875 10 69.203125 11.09375 
C 71 15.90625 75.5 27.703125 75.5 33.515625 
C 75.5 39.5 72 44 64.40625 44 
C 57.703125 44 52.296875 40.21875 48.296875 34.328125 
C 48 39.71875 44.703125 44 37.203125 44 
C 28.296875 44 23.59375 37.734375 21.796875 35.234375 
C 21.5 40.90625 17.40625 44 13 44 
C 10.09375 44 7.796875 42.609375 5.90625 38.8125 
C 4.09375 35.21875 2.703125 29.140625 2.703125 28.734375 
C 2.703125 28.34375 3.09375 27.84375 3.796875 27.84375 
C 4.59375 27.84375 4.703125 27.9375 5.296875 30.234375 
C 6.796875 36.125 8.703125 42.015625 12.703125 42.015625 
C 15 42.015625 15.796875 40.40625 15.796875 37.421875 
C 15.796875 35.21875 14.796875 31.328125 14.09375 28.234375 
L 11.296875 17.46875 
C 10.90625 15.5625 9.796875 11.078125 9.296875 9.28125 
C 8.59375 6.6875 7.5 2 7.5 1.5 
C 7.5 0.09375 8.59375 -1 10.09375 -1 
C 11.296875 -1 12.703125 -0.40625 13.5 1.09375 
C 13.703125 1.59375 14.59375 5.09375 15.09375 7.078125 
L 17.296875 16.0625 
z
" id="CMMI12-109"/>
     </defs>
     <use transform="scale(0.996264)" xlink:href="#CMSS17-84"/>
     <use transform="translate(63.819454 0)scale(0.996264)" xlink:href="#CMSS17-105"/>
     <use transform="translate(86.000177 0)scale(0.996264)" xlink:href="#CMSS17-109"/>
     <use transform="translate(160.229431 0)scale(0.996264)" xlink:href="#CMSS17-101"/>
     <use transform="translate(233.097366 0)scale(0.996264)" xlink:href="#CMMI12-116"/>
     <use transform="translate(290.462903 0)scale(0.996264)" xlink:href="#CMSY10-1"/>
     <use transform="translate(340.276195 0)scale(0.996264)" xlink:href="#CMMI12-109"/>
    </g>
   </g>
   <g id="patch_2">
    <path d="M 445.928434 219.575173 
Q 425.723682 216.828896 406.626777 214.2332 
" style="fill:none;stroke:#000000;stroke-linecap:round;"/>
    <path d="M 410.320963 216.753713 
L 406.626777 214.2332 
L 410.859699 212.790158 
" style="fill:none;stroke:#000000;stroke-linecap:round;"/>
   </g>
   <g id="patch_3">
    <path d="M 396.563059 511.654654 
Q 422.061993 366.735714 447.367181 222.917893 
" style="fill:none;stroke:#0000ff;stroke-linecap:round;"/>
    <path d="M 444.704276 226.510794 
L 447.367181 222.917893 
L 448.643758 227.203958 
" style="fill:none;stroke:#0000ff;stroke-linecap:round;"/>
   </g>
   <g id="patch_4">
    <path d="M 396.274247 511.623407 
Q 400.524461 363.715959 404.742561 216.926084 
" style="fill:none;stroke:#ff0000;stroke-linecap:round;"/>
    <path d="M 402.628491 220.866986 
L 404.742561 216.926084 
L 406.62684 220.981881 
" style="fill:none;stroke:#ff0000;stroke-linecap:round;"/>
   </g>
   <g id="patch_5">
    <path d="M 103.3 590.88441 
Q 103.3 366.735858 103.3 143.70534 
" style="fill:none;stroke:#000000;stroke-linecap:round;"/>
    <path d="M 101.3 147.70534 
L 103.3 143.70534 
L 105.3 147.70534 
" style="fill:none;stroke:#000000;stroke-linecap:round;"/>
   </g>
   <g id="patch_6">
    <path d="M 286.105563 382.038026 
Q 264.835906 379.871672 244.678529 377.818606 
" style="fill:none;stroke:#ff0000;stroke-linecap:round;"/>
    <path d="M 248.455286 380.213623 
L 244.678529 377.818606 
L 248.860596 376.23421 
" style="fill:none;stroke:#ff0000;stroke-linecap:round;"/>
   </g>
   <g id="patch_7">
    <path d="M 259.862067 292.195908 
Q 236.402938 297.166063 214.037565 301.904489 
" style="fill:none;stroke:#0000ff;stroke-linecap:round;"/>
    <path d="M 218.365233 303.032005 
L 214.037565 301.904489 
L 217.536178 299.118864 
" style="fill:none;stroke:#0000ff;stroke-linecap:round;"/>
   </g>
  </g>
 </g>
 <defs>
  <clipPath id="pa8b823277d">
   <rect height="542.7576" width="499.6816" x="90.3772" y="84.5856"/>
  </clipPath>
 </defs>
</svg>
