<?xml version="1.0" encoding="utf-8" standalone="no"?>
<!DOCTYPE svg PUBLIC "-//W3C//DTD SVG 1.1//EN"
  "http://www.w3.org/Graphics/SVG/1.1/DTD/svg11.dtd">
<!-- Created with matplotlib (https://matplotlib.org/) -->
<svg height="650.88pt" version="1.1" viewBox="0 0 602.64 650.88" width="602.64pt" xmlns="http://www.w3.org/2000/svg" xmlns:xlink="http://www.w3.org/1999/xlink">
 <metadata>
  <rdf:RDF xmlns:cc="http://creativecommons.org/ns#" xmlns:dc="http://purl.org/dc/elements/1.1/" xmlns:rdf="http://www.w3.org/1999/02/22-rdf-syntax-ns#">
   <cc:Work>
    <dc:type rdf:resource="http://purl.org/dc/dcmitype/StillImage"/>
    <dc:date>2021-07-13T12:27:57.393992</dc:date>
    <dc:format>image/svg+xml</dc:format>
    <dc:creator>
     <cc:Agent>
      <dc:title>Matplotlib v3.3.4, https://matplotlib.org/</dc:title>
     </cc:Agent>
    </dc:creator>
   </cc:Work>
  </rdf:RDF>
 </metadata>
 <defs>
  <style type="text/css">*{stroke-linecap:butt;stroke-linejoin:round;}</style>
 </defs>
 <g id="figure_1">
  <g id="patch_1">
   <path d="M 0 650.88 
L 602.64 650.88 
L 602.64 0 
L 0 0 
z
" style="fill:#ffffff;"/>
  </g>
  <g id="axes_1">
   <g id="line2d_1">
    <path clip-path="url(#p7222ae4aa8)" d="M 408.293 567.3504 
L 414.088638 562.634663 
L 419.988353 557.545213 
L 426.1119 551.96291 
L 432.450566 545.879041 
L 439.237382 539.048848 
L 446.694367 531.216559 
L 455.384298 521.750479 
L 468.013204 507.623157 
L 483.828698 489.993365 
L 492.463453 480.711003 
L 499.872265 473.069437 
L 506.61363 466.432688 
L 512.9068 460.542218 
L 518.984418 455.152881 
L 524.967194 450.146492 
L 527.621 448.0224 
L 527.621 448.0224 
" style="fill:none;stroke:#000000;stroke-linecap:square;stroke-width:0.7;"/>
   </g>
   <g id="line2d_2">
    <path clip-path="url(#p7222ae4aa8)" d="M 527.621 448.0224 
L 507.678811 446.071963 
L 496.892391 444.785024 
L 487.914938 443.497419 
L 479.578261 442.077333 
L 471.877686 440.541128 
L 464.522931 438.849674 
L 457.230587 436.93978 
L 450.278729 434.893305 
L 443.110781 432.548026 
L 436.003948 429.988844 
L 428.684452 427.118866 
L 420.884904 423.818827 
L 412.342068 419.954943 
L 402.528045 415.264615 
L 388.009449 408.048151 
L 370.575054 399.430671 
L 360.737781 394.82172 
L 352.436173 391.168655 
L 344.608736 387.966228 
L 337.260079 385.198312 
L 330.123054 382.744802 
L 322.923658 380.50959 
L 315.941159 378.570362 
L 308.617351 376.770592 
L 301.232372 375.18492 
L 293.502588 373.750949 
L 285.137953 372.428718 
L 275.844242 371.192894 
L 265.034437 369.987804 
L 249.189 368.470399 
L 249.189 368.470399 
" style="fill:none;stroke:#000000;stroke-linecap:square;stroke-width:0.7;"/>
   </g>
   <g id="line2d_3">
    <path clip-path="url(#p7222ae4aa8)" d="M 249.189 368.4704 
L 241.723253 373.115203 
L 234.053377 378.151431 
L 226.019847 383.698182 
L 217.630055 389.765314 
L 208.570453 396.598356 
L 198.536832 404.455297 
L 186.762116 413.972359 
L 169.560355 428.198105 
L 148.033239 445.94707 
L 136.363251 455.271971 
L 126.428414 462.928825 
L 117.465287 469.558703 
L 109.172009 475.422721 
L 101.23536 480.766848 
L 93.495004 485.709102 
L 90.085 487.7984 
L 90.085 487.7984 
" style="fill:none;stroke:#000000;stroke-linecap:square;stroke-width:0.7;"/>
   </g>
   <g id="line2d_4">
    <path clip-path="url(#p7222ae4aa8)" d="M 90.085 487.7984 
L 98.383558 488.447611 
L 106.959305 489.341806 
L 115.809037 490.493794 
L 124.605253 491.859852 
L 133.674392 493.487953 
L 143.335892 495.454082 
L 153.264084 497.707185 
L 163.458964 500.247273 
L 174.237707 503.159384 
L 185.912954 506.546693 
L 198.794365 510.524296 
L 213.190976 515.209788 
L 230.973077 521.244435 
L 292.691916 542.409151 
L 306.803201 546.882209 
L 319.4007 550.641721 
L 330.791622 553.812592 
L 341.603569 556.591888 
L 351.833561 558.991526 
L 361.476957 561.030075 
L 370.851976 562.788394 
L 379.957252 564.271948 
L 388.79077 565.488793 
L 397.349942 566.449285 
L 405.96404 567.190076 
L 408.293 567.3504 
L 408.293 567.3504 
" style="fill:none;stroke:#000000;stroke-linecap:square;stroke-width:0.7;"/>
   </g>
   <g id="line2d_5">
    <path clip-path="url(#p7222ae4aa8)" d="M 408.293 288.9184 
L 414.088638 284.202663 
L 419.988353 279.113213 
L 426.1119 273.53091 
L 432.450566 267.447041 
L 439.237382 260.616848 
L 446.694367 252.784559 
L 455.384298 243.318479 
L 468.013204 229.191157 
L 483.828698 211.561365 
L 492.463453 202.279003 
L 499.872265 194.637437 
L 506.61363 188.000688 
L 512.9068 182.110218 
L 518.984418 176.720881 
L 524.967194 171.714492 
L 527.621 169.5904 
L 527.621 169.5904 
" style="fill:none;stroke:#000000;stroke-linecap:square;stroke-width:0.7;"/>
   </g>
   <g id="line2d_6">
    <path clip-path="url(#p7222ae4aa8)" d="M 527.621 169.5904 
L 507.678811 167.639963 
L 496.892391 166.353024 
L 487.914938 165.065419 
L 479.578261 163.645333 
L 471.877686 162.109128 
L 464.522931 160.417674 
L 457.230587 158.50778 
L 450.278729 156.461305 
L 443.110781 154.116026 
L 436.003948 151.556844 
L 428.684452 148.686866 
L 420.884904 145.386827 
L 412.342068 141.522943 
L 402.528045 136.832615 
L 388.009449 129.616151 
L 370.575054 120.998671 
L 360.737781 116.38972 
L 352.436173 112.736655 
L 344.608736 109.534228 
L 337.260079 106.766312 
L 330.123054 104.312802 
L 322.923658 102.07759 
L 315.941159 100.138362 
L 308.617351 98.338592 
L 301.232372 96.75292 
L 293.502588 95.318949 
L 285.137953 93.996718 
L 275.844242 92.760894 
L 265.034437 91.555804 
L 249.189 90.038399 
L 249.189 90.038399 
" style="fill:none;stroke:#000000;stroke-linecap:square;stroke-width:0.7;"/>
   </g>
   <g id="line2d_7">
    <path clip-path="url(#p7222ae4aa8)" d="M 249.189 90.0384 
L 241.723253 94.683203 
L 234.053377 99.719431 
L 226.019847 105.266182 
L 217.630055 111.333314 
L 208.570453 118.166356 
L 198.536832 126.023297 
L 186.762116 135.540359 
L 169.560355 149.766105 
L 148.033239 167.51507 
L 136.363251 176.839971 
L 126.428414 184.496825 
L 117.465287 191.126703 
L 109.172009 196.990721 
L 101.23536 202.334848 
L 93.495004 207.277102 
L 90.085 209.3664 
L 90.085 209.3664 
" style="fill:none;stroke:#000000;stroke-linecap:square;stroke-width:0.7;"/>
   </g>
   <g id="line2d_8">
    <path clip-path="url(#p7222ae4aa8)" d="M 90.085 209.3664 
L 111.737937 210.747606 
L 123.341651 211.713568 
L 133.234511 212.754262 
L 142.085542 213.901057 
L 150.554669 215.221731 
L 158.643271 216.710765 
L 166.354858 218.354125 
L 174.012507 220.213232 
L 181.615924 222.289272 
L 189.166045 224.578493 
L 196.976412 227.180467 
L 205.044399 230.105702 
L 213.677022 233.479865 
L 223.17739 237.444264 
L 234.152998 242.276391 
L 250.858356 249.910532 
L 269.096893 258.180649 
L 279.790855 262.785622 
L 289.010525 266.519076 
L 297.360927 269.668387 
L 305.456255 272.484254 
L 313.29509 274.972357 
L 320.87389 277.146866 
L 328.506644 279.105552 
L 336.193625 280.847334 
L 343.933869 282.376065 
L 352.050904 283.751369 
L 360.547321 284.962883 
L 369.753147 286.044234 
L 380.002289 287.013536 
L 391.961287 287.912102 
L 408.293 288.918401 
L 408.293 288.918401 
" style="fill:none;stroke:#000000;stroke-linecap:square;stroke-width:0.7;"/>
   </g>
   <g id="line2d_9">
    <path clip-path="url(#p7222ae4aa8)" d="M 265.49716 183.90976 
L 257.462408 462.620192 
L 257.462408 462.620192 
" style="fill:none;stroke:#ff0000;stroke-linecap:square;stroke-width:0.7;"/>
   </g>
   <g id="line2d_10">
    <path clip-path="url(#p7222ae4aa8)" d="M 360.119424 474.659753 
L 360.213852 473.159209 
L 360.105177 471.63791 
L 359.751586 469.947689 
L 359.154468 468.24772 
L 358.316681 466.546138 
L 357.242232 464.851082 
L 355.806265 463.018904 
L 354.102967 461.214576 
L 352.142034 459.44837 
L 349.73994 457.589659 
L 347.064661 455.799906 
L 343.898616 453.963303 
L 340.461029 452.234765 
L 336.778535 450.627687 
L 332.593684 449.054725 
L 328.197688 447.649463 
L 323.629644 446.424398 
L 318.930178 445.390427 
L 314.141088 444.556744 
L 309.304966 443.930765 
L 304.464825 443.518057 
L 299.663711 443.32229 
L 294.944325 443.345206 
L 290.348641 443.586601 
L 285.917531 444.044327 
L 281.690406 444.714315 
L 277.962325 445.525914 
L 274.473592 446.510953 
L 271.251241 447.661801 
L 268.519435 448.871137 
L 266.057117 450.207684 
L 264.037659 451.546619 
L 262.27336 452.978722 
L 260.774266 454.495839 
L 259.640389 455.953844 
L 258.741971 457.469056 
L 258.083313 459.034225 
L 257.667564 460.641862 
L 257.502097 462.133734 
L 257.539694 463.648449 
L 257.815388 465.33387 
L 258.335275 467.031618 
L 259.096865 468.73357 
L 260.096517 470.431584 
L 261.452903 472.269926 
L 263.079165 474.083447 
L 264.966044 475.861821 
L 267.291766 477.736993 
L 269.89518 479.546509 
L 272.98942 481.407935 
L 276.36154 483.164779 
L 279.985412 484.803428 
L 284.115563 486.413559 
L 288.465725 487.859126 
L 292.997209 489.127272 
L 297.669711 490.206718 
L 302.441675 491.087865 
L 307.270661 491.762875 
L 312.11372 492.225745 
L 316.927778 492.472359 
L 321.670021 492.500522 
L 326.298271 492.309985 
L 330.771366 491.902442 
L 335.049523 491.281518 
L 338.832995 490.514315 
L 342.384175 489.571972 
L 345.675547 488.461789 
L 348.476861 487.288119 
L 351.013429 485.984978 
L 353.105206 484.674678 
L 354.94503 483.268929 
L 356.522425 481.775736 
L 357.730137 480.33741 
L 358.703993 478.839626 
L 359.439336 477.289552 
L 359.932645 475.694602 
L 360.119424 474.659753 
L 360.119424 474.659753 
" style="fill:none;stroke:#ff0000;stroke-linecap:square;stroke-width:0.7;"/>
   </g>
   <g id="line2d_11">
    <path clip-path="url(#p7222ae4aa8)" d="M 368.074624 196.227753 
L 368.169052 194.727209 
L 368.060377 193.20591 
L 367.706786 191.515689 
L 367.109668 189.81572 
L 366.271881 188.114138 
L 365.197432 186.419082 
L 363.761465 184.586904 
L 362.058167 182.782576 
L 360.097234 181.01637 
L 357.69514 179.157659 
L 355.019861 177.367906 
L 351.853816 175.531303 
L 348.416229 173.802765 
L 344.733735 172.195687 
L 340.548884 170.622725 
L 336.152888 169.217463 
L 331.584844 167.992398 
L 326.885378 166.958427 
L 322.096288 166.124744 
L 317.260166 165.498765 
L 312.420025 165.086057 
L 307.618911 164.89029 
L 302.899525 164.913206 
L 298.303841 165.154601 
L 293.872731 165.612327 
L 289.645606 166.282315 
L 285.917525 167.093914 
L 282.428792 168.078953 
L 279.206441 169.229801 
L 276.474635 170.439137 
L 274.012317 171.775684 
L 271.992859 173.114619 
L 270.22856 174.546722 
L 268.729466 176.063839 
L 267.595589 177.521844 
L 266.697171 179.037056 
L 266.038513 180.602225 
L 265.622764 182.209862 
L 265.457297 183.701734 
L 265.494894 185.216449 
L 265.770588 186.90187 
L 266.290475 188.599618 
L 267.052065 190.30157 
L 268.051717 191.999584 
L 269.408103 193.837926 
L 271.034365 195.651447 
L 272.921244 197.429821 
L 275.246966 199.304993 
L 277.85038 201.114509 
L 280.94462 202.975935 
L 284.31674 204.732779 
L 287.940612 206.371428 
L 292.070763 207.981559 
L 296.420925 209.427126 
L 300.952409 210.695272 
L 305.624911 211.774718 
L 310.396875 212.655865 
L 315.225861 213.330875 
L 320.06892 213.793745 
L 324.882978 214.040359 
L 329.625221 214.068522 
L 334.253471 213.877985 
L 338.726566 213.470442 
L 343.004723 212.849518 
L 346.788195 212.082315 
L 350.339375 211.139972 
L 353.630747 210.029789 
L 356.432061 208.856119 
L 358.968629 207.552978 
L 361.060406 206.242678 
L 362.90023 204.836929 
L 364.477625 203.343736 
L 365.685337 201.90541 
L 366.659193 200.407626 
L 367.394536 198.857552 
L 367.887845 197.262602 
L 368.074624 196.227753 
L 368.074624 196.227753 
" style="fill:none;stroke:#ff0000;stroke-linecap:square;stroke-width:0.7;"/>
   </g>
   <g id="text_1">
    <!-- $\mathcal{M}$ -->
    <g transform="translate(129.861 380.4032)scale(0.24 -0.24)">
     <defs>
      <path d="M 38.5 56.703125 
C 41.203125 43.703125 45.59375 22.296875 51.296875 10.703125 
C 53.5 6.390625 54.59375 4.203125 55.59375 4.203125 
C 56 4.203125 56.203125 4.203125 58 6 
C 65.59375 13.265625 70.796875 19.046875 77.796875 27.03125 
L 99.703125 52.453125 
C 98.296875 43.96875 94.703125 21.53125 94.703125 9.859375 
C 94.703125 7.171875 94.796875 4.578125 95.09375 1.875 
C 95.203125 0.796875 95.59375 -2.109375 99.796875 -2.109375 
C 104 -2.109375 111.59375 2.296875 111.59375 4.296875 
C 111.59375 4.890625 111 5 110.703125 5 
C 109.40625 5 107.40625 4.109375 106.296875 3.40625 
C 103.90625 3.71875 103.703125 5.3125 103.5 7.59375 
C 103.203125 10.78125 103.203125 13.78125 103.203125 14.1875 
C 103.203125 25.234375 107.59375 55.4375 110.5 67.8125 
C 110.59375 68.515625 110.703125 68.703125 110.703125 69.5 
C 110.703125 69.890625 110.59375 71 109.90625 71 
C 109.5 71 109.40625 70.890625 107.5 68.6875 
C 98.09375 57.34375 68.90625 22.4375 59 14.0625 
C 56.5 19.328125 54.703125 23.125 51.203125 37.0625 
C 48.296875 48.3125 46.59375 56.5625 44.90625 66.21875 
C 44.59375 67.609375 44.09375 70.296875 44.09375 70.5 
C 43.796875 71 43.296875 71 43 71 
C 41.203125 71 37 68.8125 36.703125 66.71875 
C 35.5 58.359375 33.5 45.203125 26.5 26.203125 
C 18.5 5 16.296875 5 14.40625 5 
C 13.09375 5 9.40625 5.796875 7.203125 7.78125 
C 6.703125 8.28125 6.5 8.28125 6.296875 8.28125 
C 4.90625 8.28125 2.703125 3.75 2.703125 0.9375 
C 2.703125 0.03125 2.703125 -1.1875 5.90625 -2.875 
C 8.40625 -4.203125 10.796875 -4.203125 11.296875 -4.203125 
C 17.5 -4.203125 23.40625 10.09375 25.40625 15.203125 
C 30.09375 26.5 35.703125 42.296875 38.5 56.703125 
z
" id="CMSY10-77"/>
     </defs>
     <use transform="scale(0.996264)" xlink:href="#CMSY10-77"/>
    </g>
   </g>
   <g id="text_2">
    <!-- $\Sigma_t$ -->
    <g transform="translate(487.845 432.112)scale(0.24 -0.24)">
     <defs>
      <path d="M 32.296875 32.765625 
C 33 33.5625 33 33.765625 33 34.0625 
C 33 34.4375 32.59375 35.046875 32.5 35.25 
L 12.796875 65.40625 
L 37 65.40625 
C 53.59375 65.40625 58.59375 61.8125 60.296875 46 
L 62.09375 46 
L 59.703125 68 
L 6.796875 68 
C 4.703125 68 4.59375 67.90625 4.59375 65.8125 
L 27.703125 30.375 
L 5.40625 1.890625 
C 4.703125 1 4.703125 0.90625 4.703125 0.703125 
C 4.703125 0 5.296875 0 6.796875 0 
L 59.703125 0 
L 62.09375 22.8125 
L 60.296875 22.8125 
C 58.703125 6.6875 53 3.40625 36.796875 3.40625 
L 9.203125 3.40625 
z
" id="CMR17-6"/>
      <path d="M 20.09375 40.09375 
L 29.296875 40.09375 
C 31.203125 40.09375 32.203125 40.09375 32.203125 41.890625 
C 32.203125 43 31.59375 43 29.59375 43 
L 20.796875 43 
L 24.5 57.6875 
C 24.90625 59.078125 24.90625 59.28125 24.90625 60 
C 24.90625 61.609375 23.59375 62.5 22.296875 62.5 
C 21.5 62.5 19.203125 62.203125 18.40625 58.984375 
L 14.5 43 
L 5.09375 43 
C 3.09375 43 2.203125 43 2.203125 41.09375 
C 2.203125 40.09375 2.90625 40.09375 4.796875 40.09375 
L 13.703125 40.09375 
L 7.09375 13.765625 
C 6.296875 10.28125 6 9.28125 6 7.984375 
C 6 3.296875 9.296875 -1 14.90625 -1 
C 25 -1 30.40625 13.5625 30.40625 14.25 
C 30.40625 14.859375 30 15.15625 29.40625 15.15625 
C 29.203125 15.15625 28.796875 15.15625 28.59375 14.75 
C 28.5 14.65625 28.40625 14.546875 27.703125 12.953125 
C 25.59375 7.984375 21 1 15.203125 1 
C 12.203125 1 12 3.5 12 5.6875 
C 12 5.78125 12 7.6875 12.296875 8.875 
z
" id="CMMI12-116"/>
     </defs>
     <use transform="scale(0.996264)" xlink:href="#CMR17-6"/>
     <use transform="translate(66.509881 -14.943915)scale(0.697382)" xlink:href="#CMMI12-116"/>
    </g>
   </g>
   <g id="text_3">
    <!-- $\Sigma_{t+\delta t}$ -->
    <g transform="translate(487.845 149.7024)scale(0.24 -0.24)">
     <defs>
      <path d="M 37.703125 23 
L 64.203125 23 
C 65.59375 23 67.296875 23 67.296875 24.6875 
C 67.296875 26.484375 65.703125 26.484375 64.203125 26.484375 
L 37.703125 26.484375 
L 37.703125 52.90625 
C 37.703125 54.296875 37.703125 56 36 56 
C 34.203125 56 34.203125 54.40625 34.203125 52.90625 
L 34.203125 26.484375 
L 7.703125 26.484375 
C 6.296875 26.484375 4.59375 26.484375 4.59375 24.796875 
C 4.59375 23 6.203125 23 7.703125 23 
L 34.203125 23 
L 34.203125 -3.40625 
C 34.203125 -4.796875 34.203125 -6.5 35.90625 -6.5 
C 37.703125 -6.5 37.703125 -4.90625 37.703125 -3.40625 
z
" id="CMR17-43"/>
      <path d="M 26 43.671875 
C 13.203125 40.578125 4 27.3125 4 15.640625 
C 4 4.984375 11.203125 -1 19.203125 -1 
C 31 -1 39 15.15625 39 28.40625 
C 39 37.375 34.796875 42.875 32.296875 46.15625 
C 28.59375 50.84375 22.59375 58.53125 22.59375 63.3125 
C 22.59375 65.015625 23.90625 68 28.296875 68 
C 31.40625 68 33.296875 66.90625 36.296875 65.203125 
C 37.203125 64.59375 39.5 63.3125 40.796875 63.3125 
C 42.90625 63.3125 44.40625 65.390625 44.40625 66.984375 
C 44.40625 68.890625 42.90625 69.1875 39.40625 69.984375 
C 34.703125 70.984375 33.296875 70.984375 31.59375 70.984375 
C 29.90625 70.984375 20.09375 70.984375 20.09375 60.8125 
C 20.09375 55.921875 22.59375 50.25 26 43.671875 
z
M 27.09375 41.703125 
C 30.90625 33.828125 32.40625 30.84375 32.40625 24.375 
C 32.40625 16.609375 28.203125 0.984375 19.296875 0.984375 
C 15.40625 0.984375 9.796875 3.578125 9.796875 12.828125 
C 9.796875 19.296875 13.5 38.109375 27.09375 41.703125 
z
" id="CMMI12-14"/>
     </defs>
     <use transform="scale(0.996264)" xlink:href="#CMR17-6"/>
     <use transform="translate(66.509881 -14.943915)scale(0.697382)" xlink:href="#CMMI12-116"/>
     <use transform="translate(91.16819 -14.943915)scale(0.697382)" xlink:href="#CMR17-43"/>
     <use transform="translate(141.368322 -14.943915)scale(0.697382)" xlink:href="#CMMI12-14"/>
     <use transform="translate(174.227141 -14.943915)scale(0.697382)" xlink:href="#CMMI12-116"/>
    </g>
   </g>
   <g id="text_4">
    <!-- $V$ -->
    <g transform="translate(308.853 193.456)scale(0.16 -0.16)">
     <defs>
      <path d="M 61.90625 56.875 
C 65.296875 62.25 68.40625 64.625 73.5 65.03125 
C 74.5 65.125 75.296875 65.125 75.296875 66.90625 
C 75.296875 67.3125 75.09375 67.90625 74.203125 67.90625 
C 72.40625 67.90625 68.09375 67.90625 66.296875 67.90625 
C 63.40625 67.90625 60.40625 67.90625 57.59375 67.90625 
C 56.796875 67.90625 55.796875 67.90625 55.796875 66.03125 
C 55.796875 65.125 56.703125 65.03125 57.09375 65.03125 
C 60.796875 64.734375 61.203125 62.953125 61.203125 61.75 
C 61.203125 60.265625 59.796875 57.96875 59.703125 57.875 
L 28.296875 8.4375 
L 21.296875 62.015625 
C 21.296875 65 26.5 65 27.59375 65 
C 29.09375 65 30 65 30 66.90625 
C 30 67.90625 28.90625 67.90625 28.59375 67.90625 
C 26.90625 67.90625 24.90625 67.90625 23.203125 67.90625 
L 17.59375 67.90625 
C 10.296875 67.90625 7.296875 67.90625 7.203125 67.90625 
C 6.59375 67.90625 5.40625 67.90625 5.40625 66.09375 
C 5.40625 65 6.09375 65 7.703125 65 
C 12.796875 65 13.09375 64.09375 13.40625 61.625 
L 21.40625 0.375 
C 21.703125 -1.703125 21.703125 -2 23.09375 -2 
C 24.296875 -2 24.796875 -1.703125 25.796875 -0.125 
z
" id="CMMI12-86"/>
     </defs>
     <use transform="scale(0.996264)" xlink:href="#CMMI12-86"/>
    </g>
   </g>
   <g id="text_5">
    <!-- $V$ -->
    <g transform="translate(308.853 471.888)scale(0.16 -0.16)">
     <use transform="scale(0.996264)" xlink:href="#CMMI12-86"/>
    </g>
   </g>
   <g id="text_6">
    <!-- $x^\mu = \{t,x^i\}$ -->
    <g transform="translate(157.7042 475.8656)scale(0.16 -0.16)">
     <defs>
      <path d="M 47.40625 40.71875 
C 44.203125 40.109375 43 37.71875 43 35.828125 
C 43 33.421875 44.90625 32.625 46.296875 32.625 
C 49.296875 32.625 51.40625 35.21875 51.40625 37.921875 
C 51.40625 42.109375 46.59375 44 42.40625 44 
C 36.296875 44 32.90625 38.015625 32 36.125 
C 29.703125 44 23.5 44 21.703125 44 
C 11.5 44 6.09375 30.9375 6.09375 28.734375 
C 6.09375 28.34375 6.5 27.84375 7.203125 27.84375 
C 8 27.84375 8.203125 28.4375 8.40625 28.84375 
C 11.796875 39.921875 18.5 42.015625 21.40625 42.015625 
C 25.90625 42.015625 26.796875 37.8125 26.796875 35.421875 
C 26.796875 33.234375 26.203125 30.9375 25 26.140625 
L 21.59375 12.46875 
C 20.09375 6.484375 17.203125 1 11.90625 1 
C 11.40625 1 8.90625 1 6.796875 2.296875 
C 10.40625 3 11.203125 5.984375 11.203125 7.1875 
C 11.203125 9.1875 9.703125 10.375 7.796875 10.375 
C 5.40625 10.375 2.796875 8.28125 2.796875 5.09375 
C 2.796875 0.890625 7.5 -1 11.796875 -1 
C 16.59375 -1 20 2.796875 22.09375 6.890625 
C 23.703125 1 28.703125 -1 32.40625 -1 
C 42.59375 -1 48 12.078125 48 14.265625 
C 48 14.765625 47.59375 15.171875 47 15.171875 
C 46.09375 15.171875 46 14.671875 45.703125 13.875 
C 43 5.09375 37.203125 1 32.703125 1 
C 29.203125 1 27.296875 3.59375 27.296875 7.6875 
C 27.296875 9.875 27.703125 11.46875 29.296875 18.0625 
L 32.796875 31.625 
C 34.296875 37.625 37.703125 42.015625 42.296875 42.015625 
C 42.5 42.015625 45.296875 42.015625 47.40625 40.71875 
z
" id="CMMI12-120"/>
      <path d="M 14.40625 2.1875 
C 16.90625 -0.09375 20.59375 -1 24 -1 
C 30.40625 -1 34.796875 3.25 37.09375 6.328125 
C 38.09375 1.078125 42.296875 -1 45.796875 -1 
C 48.796875 -1 51.203125 0.78125 53 4.328125 
C 54.59375 7.703125 56 13.734375 56 14.109375 
C 56 14.609375 55.59375 15 55 15 
C 54.09375 15 54 14.5 53.59375 13.03125 
C 52.09375 7.203125 50.203125 1 46.09375 1 
C 43.203125 1 43 3.578125 43 5.59375 
C 43 7.875 43.90625 11.484375 44.59375 14.46875 
L 47.40625 25.234375 
C 47.796875 27.140625 48.90625 31.609375 49.40625 33.421875 
C 50 35.8125 51.09375 40.109375 51.09375 40.5 
C 51.09375 42 49.90625 43 48.40625 43 
C 47.5 43 45.40625 42.59375 44.59375 39.609375 
L 37.59375 11.875 
C 37.09375 9.875 37.09375 9.671875 35.796875 8.078125 
C 34.59375 6.390625 30.703125 1 24.40625 1 
C 18.796875 1 17 5.09375 17 9.765625 
C 17 12.671875 17.90625 16.15625 18.296875 17.859375 
L 22.796875 35.828125 
C 23.296875 37.71875 24.09375 40.90625 24.09375 41.515625 
C 24.09375 43.109375 22.796875 44 21.5 44 
C 20.59375 44 18.40625 43.703125 17.59375 40.5 
L 3.09375 -17.296875 
C 3 -17.796875 2.796875 -18.390625 2.796875 -19 
C 2.796875 -20.5 4 -21.5 5.5 -21.5 
C 8.40625 -21.5 9 -19.1875 9.703125 -16.40625 
z
" id="CMMI12-22"/>
      <path d="M 64.296875 31.515625 
C 65.796875 31.515625 67.296875 31.515625 67.296875 33.203125 
C 67.296875 35 65.59375 35 63.90625 35 
L 8 35 
C 6.296875 35 4.59375 35 4.59375 33.203125 
C 4.59375 31.515625 6.09375 31.515625 7.59375 31.515625 
z
M 63.90625 14 
C 65.59375 14 67.296875 14 67.296875 15.796875 
C 67.296875 17.484375 65.796875 17.484375 64.296875 17.484375 
L 7.59375 17.484375 
C 6.09375 17.484375 4.59375 17.484375 4.59375 15.796875 
C 4.59375 14 6.296875 14 8 14 
z
" id="CMR17-61"/>
      <path d="M 28.296875 61.90625 
C 28.296875 65.953125 30.90625 72.40625 41.796875 72.40625 
C 42.296875 72.53125 42.703125 73 42.703125 73.71875 
C 42.703125 75 41.90625 75 40.796875 75 
C 30.796875 75 21.703125 69.859375 21.59375 62.390625 
L 21.59375 39.40625 
C 21.59375 35.46875 21.59375 32.234375 17.59375 28.921875 
C 14.09375 26 10.296875 26 8.09375 26 
C 7.59375 25.890625 7.203125 25.40625 7.203125 24.6875 
C 7.203125 23.5 7.796875 23.5 8.796875 23.5 
C 15.40625 23.5 20.203125 19.90625 21.296875 15 
C 21.59375 13.90625 21.59375 13.703125 21.59375 10.09375 
L 21.59375 -9.703125 
C 21.59375 -13.90625 21.59375 -17.09375 26.40625 -20.90625 
C 30.296875 -23.90625 36.90625 -25 40.796875 -25 
C 41.90625 -25 42.703125 -25 42.703125 -23.90625 
C 42.703125 -22.703125 42.09375 -22.703125 41.09375 -22.703125 
C 34.796875 -22.703125 29.90625 -19.5 28.59375 -14.375 
C 28.296875 -13.484375 28.296875 -13.28125 28.296875 -9.671875 
L 28.296875 11.359375 
C 28.296875 15.984375 27.5 17.6875 24.296875 20.890625 
C 22.203125 23 19.296875 24 16.5 24.796875 
C 24.703125 27.125 28.296875 31.78125 28.296875 37.640625 
z
" id="CMSY10-102"/>
      <path d="M 19.5 -0.484375 
C 19.5 5.359375 17.59375 9.671875 13.5 9.671875 
C 10.296875 9.671875 8.703125 7.078125 8.703125 4.890625 
C 8.703125 2.6875 10.203125 0 13.59375 0 
C 14.90625 0 16 0.40625 16.90625 1.296875 
C 17.09375 1.5 17.203125 1.5 17.296875 1.5 
C 17.5 1.5 17.5 0.078125 17.5 -0.421875 
C 17.5 -3.75 16.90625 -10.296875 11.09375 -16.875 
C 10 -18.078125 10 -18.28125 10 -18.484375 
C 10 -19 10.5 -19.5 11 -19.5 
C 11.796875 -19.5 19.5 -12.046875 19.5 -0.484375 
z
" id="CMMI12-59"/>
      <path d="M 28.296875 14.265625 
C 28.296875 14.765625 27.90625 15.171875 27.296875 15.171875 
C 26.40625 15.171875 26.296875 14.875 25.796875 13.171875 
C 23.203125 4.09375 19.09375 1 15.796875 1 
C 14.59375 1 13.203125 1.296875 13.203125 4.296875 
C 13.203125 6.984375 14.40625 9.984375 15.5 12.96875 
L 22.5 31.53125 
C 22.796875 32.328125 23.5 34.125 23.5 36.015625 
C 23.5 40.21875 20.5 44 15.59375 44 
C 6.40625 44 2.703125 29.53125 2.703125 28.734375 
C 2.703125 28.34375 3.09375 27.84375 3.796875 27.84375 
C 4.703125 27.84375 4.796875 28.234375 5.203125 29.625 
C 7.59375 37.9375 11.40625 41.90625 15.296875 41.90625 
C 16.203125 41.90625 17.90625 41.90625 17.90625 38.71875 
C 17.90625 36.125 16.59375 32.828125 15.796875 30.640625 
L 8.796875 12.078125 
C 8.203125 10.484375 7.59375 8.875 7.59375 7.078125 
C 7.59375 2.59375 10.703125 -1 15.5 -1 
C 24.703125 -1 28.296875 13.578125 28.296875 14.265625 
z
M 27.5 62.703125 
C 27.5 64.203125 26.296875 66 24.09375 66 
C 21.796875 66 19.203125 63.796875 19.203125 61.203125 
C 19.203125 58.71875 21.296875 57.921875 22.5 57.921875 
C 25.203125 57.921875 27.5 60.515625 27.5 62.703125 
z
" id="CMMI12-105"/>
      <path d="M 21.59375 -12.0625 
C 21.59375 -16.078125 19 -22.5 8.09375 -22.5 
C 7.59375 -22.625 7.203125 -23.0625 7.203125 -23.765625 
C 7.203125 -25 8.296875 -25 9.203125 -25 
C 18.90625 -25 28.203125 -20.109375 28.296875 -12.53125 
L 28.296875 10.234375 
C 28.296875 14.125 28.296875 17.328125 32.296875 20.609375 
C 35.796875 23.5 39.59375 23.5 41.796875 23.5 
C 42.296875 23.609375 42.703125 24.09375 42.703125 24.8125 
C 42.703125 26 42.09375 26 41.09375 26 
C 34.5 26 29.703125 29.625 28.59375 34.59375 
C 28.296875 35.6875 28.296875 35.890625 28.296875 39.546875 
L 28.296875 59.546875 
C 28.296875 63.796875 28.296875 67.015625 23.5 70.859375 
C 19.5 73.984375 12.59375 75 9.203125 75 
C 8.296875 75 7.203125 75 7.203125 73.75 
C 7.203125 72.59375 7.796875 72.59375 8.796875 72.59375 
C 15.09375 72.59375 20 69.359375 21.296875 64.21875 
C 21.59375 63.3125 21.59375 63.109375 21.59375 59.484375 
L 21.59375 38.3125 
C 21.59375 33.671875 22.40625 31.953125 25.59375 28.734375 
C 27.703125 26.609375 30.59375 25.59375 33.40625 24.796875 
C 25.203125 22.484375 21.59375 17.859375 21.59375 12.046875 
z
" id="CMSY10-103"/>
     </defs>
     <use transform="scale(0.996264)" xlink:href="#CMMI12-120"/>
     <use transform="translate(55.43406 36.153639)scale(0.697382)" xlink:href="#CMMI12-22"/>
     <use transform="translate(124.690005 0)scale(0.996264)" xlink:href="#CMR17-61"/>
     <use transform="translate(224.078802 0)scale(0.996264)" xlink:href="#CMSY10-102"/>
     <use transform="translate(273.892185 0)scale(0.996264)" xlink:href="#CMMI12-116"/>
     <use transform="translate(309.118516 0)scale(0.996264)" xlink:href="#CMMI12-59"/>
     <use transform="translate(352.820098 0)scale(0.996264)" xlink:href="#CMMI12-120"/>
     <use transform="translate(408.254157 36.153639)scale(0.697382)" xlink:href="#CMMI12-105"/>
     <use transform="translate(432.047197 0)scale(0.996264)" xlink:href="#CMSY10-103"/>
    </g>
   </g>
   <g id="text_7">
    <!-- $x^\mu = \{t+\delta t,x^i\}$ -->
    <g transform="translate(217.3682 133.792)scale(0.16 -0.16)">
     <use transform="scale(0.996264)" xlink:href="#CMMI12-120"/>
     <use transform="translate(55.43406 36.153639)scale(0.697382)" xlink:href="#CMMI12-22"/>
     <use transform="translate(124.690005 0)scale(0.996264)" xlink:href="#CMR17-61"/>
     <use transform="translate(224.078802 0)scale(0.996264)" xlink:href="#CMSY10-102"/>
     <use transform="translate(273.892185 0)scale(0.996264)" xlink:href="#CMMI12-116"/>
     <use transform="translate(331.257723 0)scale(0.996264)" xlink:href="#CMR17-43"/>
     <use transform="translate(425.111718 0)scale(0.996264)" xlink:href="#CMMI12-14"/>
     <use transform="translate(472.053104 0)scale(0.996264)" xlink:href="#CMMI12-116"/>
     <use transform="translate(507.279434 0)scale(0.996264)" xlink:href="#CMMI12-59"/>
     <use transform="translate(550.981017 0)scale(0.996264)" xlink:href="#CMMI12-120"/>
     <use transform="translate(606.415076 36.153639)scale(0.697382)" xlink:href="#CMMI12-105"/>
     <use transform="translate(630.208115 0)scale(0.996264)" xlink:href="#CMSY10-103"/>
    </g>
   </g>
   <g id="text_8">
    <!-- $\delta t \cdot \alpha n^\mu$ -->
    <g transform="translate(390.79156 328.6944)scale(0.16 -0.16)">
     <defs>
      <path d="M 19.203125 25.296875 
C 19.203125 28.203125 16.796875 30.59375 13.90625 30.59375 
C 11 30.59375 8.59375 28.203125 8.59375 25.296875 
C 8.59375 22.390625 11 20 13.90625 20 
C 16.796875 20 19.203125 22.390625 19.203125 25.296875 
z
" id="CMSY10-1"/>
      <path d="M 46.296875 25.25 
C 46.296875 34.921875 40.796875 43.984375 30.203125 43.984375 
C 17.09375 43.984375 4 29.71875 4 15.5625 
C 4 6.890625 9.40625 -1 19.59375 -1 
C 25.796875 -1 33.203125 1.390625 40.296875 7.375 
C 41.703125 1.796875 44.796875 -1 49.09375 -1 
C 54.5 -1 57.203125 4.59375 57.203125 5.890625 
C 57.203125 6.78125 56.5 6.78125 56.203125 6.78125 
C 55.40625 6.78125 55.296875 6.484375 55 5.6875 
C 54.09375 3.1875 51.796875 1 49.40625 1 
C 46.296875 1 46.296875 7.375 46.296875 13.46875 
C 56.5 25.640625 58.90625 38.21875 58.90625 38.3125 
C 58.90625 39.21875 58.09375 39.21875 57.796875 39.21875 
C 56.90625 39.21875 56.796875 38.921875 56.40625 37.125 
C 55.09375 32.734375 52.5 24.953125 46.296875 16.765625 
z
M 40 9.78125 
C 31.203125 1.890625 23.296875 1 19.796875 1 
C 12.703125 1 10.703125 7.28125 10.703125 11.96875 
C 10.703125 16.25 12.90625 26.4375 16 31.9375 
C 20.09375 38.921875 25.703125 42 30.203125 42 
C 39.90625 42 39.90625 29.328125 39.90625 20.953125 
C 39.90625 18.46875 39.796875 15.875 39.796875 13.375 
C 39.796875 11.375 39.90625 10.875 40 9.78125 
z
" id="CMMI12-11"/>
      <path d="M 20.59375 29.234375 
C 20.796875 29.84375 23.296875 34.828125 27 38.015625 
C 29.59375 40.40625 33 42.015625 36.90625 42.015625 
C 40.90625 42.015625 42.296875 39.015625 42.296875 35.03125 
C 42.296875 29.34375 38.203125 17.96875 36.203125 12.578125 
C 35.296875 10.171875 34.796875 8.875 34.796875 7.078125 
C 34.796875 2.59375 37.90625 -1 42.703125 -1 
C 52 -1 55.5 13.671875 55.5 14.265625 
C 55.5 14.765625 55.09375 15.171875 54.5 15.171875 
C 53.59375 15.171875 53.5 14.875 53 13.171875 
C 50.703125 4.984375 46.90625 1 43 1 
C 42 1 40.40625 1 40.40625 4.203125 
C 40.40625 6.703125 41.5 9.703125 42.09375 11.09375 
C 44.09375 16.609375 48.296875 27.8125 48.296875 33.515625 
C 48.296875 39.5 44.796875 44 37.203125 44 
C 28.296875 44 23.59375 37.734375 21.796875 35.234375 
C 21.5 40.90625 17.40625 44 13 44 
C 9.796875 44 7.59375 42.109375 5.90625 38.71875 
C 4.09375 35.125 2.703125 29.140625 2.703125 28.734375 
C 2.703125 28.34375 3.09375 27.84375 3.796875 27.84375 
C 4.59375 27.84375 4.703125 27.9375 5.296875 30.234375 
C 6.90625 36.328125 8.703125 42.015625 12.703125 42.015625 
C 15 42.015625 15.796875 40.40625 15.796875 37.421875 
C 15.796875 35.21875 14.796875 31.328125 14.09375 28.234375 
L 11.296875 17.46875 
C 10.90625 15.5625 9.796875 11.078125 9.296875 9.28125 
C 8.59375 6.6875 7.5 2 7.5 1.5 
C 7.5 0.09375 8.59375 -1 10.09375 -1 
C 11.296875 -1 12.703125 -0.40625 13.5 1.09375 
C 13.703125 1.59375 14.59375 5.09375 15.09375 7.078125 
L 17.296875 16.0625 
z
" id="CMMI12-110"/>
     </defs>
     <use transform="scale(0.996264)" xlink:href="#CMMI12-14"/>
     <use transform="translate(46.941386 0)scale(0.996264)" xlink:href="#CMMI12-116"/>
     <use transform="translate(104.306923 0)scale(0.996264)" xlink:href="#CMSY10-1"/>
     <use transform="translate(154.120215 0)scale(0.996264)" xlink:href="#CMMI12-11"/>
     <use transform="translate(216.801238 0)scale(0.996264)" xlink:href="#CMMI12-110"/>
     <use transform="translate(275.031285 36.153639)scale(0.697382)" xlink:href="#CMMI12-22"/>
    </g>
   </g>
   <g id="text_9">
    <!-- $\delta t \cdot t^\mu$ -->
    <g style="fill:#ff0000;" transform="translate(323.17236 336.25184)scale(0.16 -0.16)">
     <use transform="scale(0.996264)" xlink:href="#CMMI12-14"/>
     <use transform="translate(46.941386 0)scale(0.996264)" xlink:href="#CMMI12-116"/>
     <use transform="translate(104.306923 0)scale(0.996264)" xlink:href="#CMSY10-1"/>
     <use transform="translate(154.120215 0)scale(0.996264)" xlink:href="#CMMI12-116"/>
     <use transform="translate(189.346545 36.153639)scale(0.697382)" xlink:href="#CMMI12-22"/>
    </g>
   </g>
   <g id="text_10">
    <!-- $N^\mu$ -->
    <g style="fill:#ff0000;" transform="translate(197.4802 352.56)scale(0.16 -0.16)">
     <defs>
      <path d="M 74 57.78125 
C 75.09375 62.09375 76.703125 65.09375 84.296875 65.09375 
C 84.59375 65.09375 85.796875 65.09375 85.796875 66.859375 
C 85.796875 68 84.90625 68 84.5 68 
C 82.5 68 77.40625 68 75.40625 68 
L 70.59375 68 
C 69.203125 68 67.40625 68 66 68 
C 65.40625 68 64.203125 68 64.203125 66.09375 
C 64.203125 65.09375 65 65.09375 65.703125 65.09375 
C 71.703125 65.09375 72.09375 62.796875 72.09375 60.984375 
C 72.09375 60.09375 72 59.78125 71.703125 58.390625 
L 60.40625 13.28125 
L 39 66.390625 
C 38.296875 68 38.203125 68 36 68 
L 23.796875 68 
C 21.796875 68 20.90625 68 20.90625 66.09375 
C 20.90625 65.09375 21.59375 65.09375 23.5 65.09375 
C 24 65.09375 29.90625 65.09375 29.90625 64.296875 
C 29.90625 64.09375 29.703125 63.296875 29.59375 63 
L 16.296875 9.921875 
C 15.09375 5 12.703125 2.90625 6.09375 2.90625 
C 5.59375 2.90625 4.59375 2.90625 4.59375 1.046875 
C 4.59375 0 5.59375 0 5.90625 0 
C 7.90625 0 13 0 15 0 
L 19.796875 0 
C 21.203125 0 22.90625 0 24.296875 0 
C 25 0 26.09375 0 26.09375 1.90625 
C 26.09375 2.8125 25.09375 2.90625 24.703125 2.90625 
C 21.40625 2.90625 18.203125 3.5 18.203125 7.09375 
C 18.203125 7.890625 18.40625 8.78125 18.59375 9.578125 
L 32.09375 63 
C 32.703125 62 32.703125 61.8125 33.09375 60.90625 
L 56.90625 1.796875 
C 57.40625 0.59375 57.59375 0 58.5 0 
C 59.5 0 59.59375 0.296875 60 2 
z
" id="CMMI12-78"/>
     </defs>
     <use transform="scale(0.996264)" xlink:href="#CMMI12-78"/>
     <use transform="translate(88.521773 36.153639)scale(0.697382)" xlink:href="#CMMI12-22"/>
    </g>
   </g>
   <g id="text_11">
    <!-- $H$ -->
    <g style="fill:#ff0000;" transform="translate(247.99572 288.9184)scale(0.16 -0.16)">
     <defs>
      <path d="M 74.796875 60.734375 
C 75.703125 64.109375 75.90625 65.109375 83 65.109375 
C 84.796875 65.109375 85.796875 65.109375 85.796875 66.90625 
C 85.796875 68 84.90625 68 84.296875 68 
C 82.5 68 80.40625 68 78.5 68 
L 66.703125 68 
C 64.796875 68 62.703125 68 60.796875 68 
C 60.09375 68 58.90625 68 58.90625 66.109375 
C 58.90625 65.109375 59.59375 65.109375 61.5 65.109375 
C 67.5 65.109375 67.5 64.3125 67.5 63.21875 
C 67.5 63.03125 67.5 62.421875 67.09375 60.9375 
L 61 36.890625 
L 30.796875 36.890625 
L 36.796875 60.734375 
C 37.703125 64.109375 37.90625 65.109375 45 65.109375 
C 46.796875 65.109375 47.796875 65.109375 47.796875 66.90625 
C 47.796875 68 46.90625 68 46.296875 68 
C 44.5 68 42.40625 68 40.5 68 
L 28.703125 68 
C 26.796875 68 24.703125 68 22.796875 68 
C 22.09375 68 20.90625 68 20.90625 66.109375 
C 20.90625 65.109375 21.59375 65.109375 23.5 65.109375 
C 29.5 65.109375 29.5 64.3125 29.5 63.21875 
C 29.5 63.03125 29.5 62.421875 29.09375 60.921875 
L 15.59375 7.375 
C 14.703125 3.890625 14.5 2.890625 7.59375 2.890625 
C 5.296875 2.890625 4.59375 2.890625 4.59375 1 
C 4.59375 0 5.703125 0 6 0 
C 7.796875 0 9.90625 0 11.796875 0 
L 23.59375 0 
C 25.5 0 27.59375 0 29.5 0 
C 30.296875 0 31.40625 0 31.40625 1.890625 
C 31.40625 2.890625 30.5 2.890625 29 2.890625 
C 22.90625 2.890625 22.90625 3.6875 22.90625 4.6875 
C 22.90625 4.796875 22.90625 5.484375 23.09375 6.28125 
L 30 34 
L 60.296875 34 
C 58.59375 27.390625 53.5 6.5 53.296875 5.875 
C 52.203125 2.890625 50.59375 2.890625 44.703125 2.890625 
C 43.5 2.890625 42.59375 2.890625 42.59375 1 
C 42.59375 0 43.703125 0 44 0 
C 45.796875 0 47.90625 0 49.796875 0 
L 61.59375 0 
C 63.5 0 65.59375 0 67.5 0 
C 68.296875 0 69.40625 0 69.40625 1.890625 
C 69.40625 2.890625 68.5 2.890625 67 2.890625 
C 60.90625 2.890625 60.90625 3.6875 60.90625 4.6875 
C 60.90625 4.796875 60.90625 5.484375 61.09375 6.28125 
z
" id="CMMI12-72"/>
     </defs>
     <use transform="scale(0.996264)" xlink:href="#CMMI12-72"/>
    </g>
   </g>
   <g id="text_12">
    <!-- $\delta t \cdot \beta^i$ -->
    <g transform="translate(374.4834 196.24032)scale(0.12 -0.12)">
     <defs>
      <path d="M 56.59375 57.828125 
C 56.59375 63.765625 51.5 70 42.40625 70 
C 29.5 70 21.296875 54.328125 18.703125 44 
L 2.90625 -18.3125 
C 2.703125 -19.109375 3.296875 -19.3125 3.796875 -19.3125 
C 4.5 -19.3125 5 -19.21875 5.09375 -18.71875 
L 12.09375 9.15625 
C 13.09375 3.578125 18.59375 -1 24.5 -1 
C 38.796875 -1 52.296875 10.15625 52.296875 24.984375 
C 52.296875 28.765625 51.40625 32.546875 49.296875 35.734375 
C 48.09375 37.625 46.59375 39.015625 45 40.21875 
C 52.203125 43.984375 56.59375 50 56.59375 57.828125 
z
M 39.203125 40.3125 
C 37.59375 39.71875 36 39.515625 34.09375 39.515625 
C 32.703125 39.515625 31.40625 39.421875 29.59375 40.015625 
C 30.59375 40.71875 32.09375 40.90625 34.203125 40.90625 
C 36 40.90625 37.796875 40.71875 39.203125 40.3125 
z
M 51.40625 58.71875 
C 51.40625 53.28125 48.703125 45.359375 42.203125 41.703125 
C 40.296875 42.46875 37.703125 43 35.5 43 
C 33.40625 43 27.40625 43 27.40625 39.921875 
C 27.40625 37.328125 32.90625 37.328125 34.59375 37.328125 
C 37.203125 37.328125 39.5 38 41.90625 38.8125 
C 45.09375 36.21875 46.5 32.828125 46.5 27.859375 
C 46.5 22.078125 44.90625 17.421875 43 13.140625 
C 39.703125 5.765625 31.90625 1 25 1 
C 17.703125 1 13.90625 6.75 13.90625 13.5 
C 13.90625 14.40625 13.90625 15.703125 14.296875 17.171875 
L 20.796875 43.296875 
C 24.09375 56.296875 32.5 68.015625 42.203125 68.015625 
C 49.40625 68.015625 51.40625 63.0625 51.40625 58.71875 
z
" id="CMMI12-12"/>
     </defs>
     <use transform="scale(0.996264)" xlink:href="#CMMI12-14"/>
     <use transform="translate(46.941386 0)scale(0.996264)" xlink:href="#CMMI12-116"/>
     <use transform="translate(104.306923 0)scale(0.996264)" xlink:href="#CMSY10-1"/>
     <use transform="translate(154.120215 0)scale(0.996264)" xlink:href="#CMMI12-12"/>
     <use transform="translate(214.714231 36.153639)scale(0.697382)" xlink:href="#CMMI12-105"/>
    </g>
   </g>
   <g id="text_13">
    <!-- Time $t\cdot m $ -->
    <g transform="translate(63.83284 125.8368)scale(0.16 -0.16)">
     <defs>
      <path d="M 36.203125 62 
L 44.5 62 
C 45.703125 62 46.90625 62 48.09375 62 
L 60.59375 62 
L 60.59375 68.375 
L 3.40625 68.375 
L 3.40625 62 
L 15.90625 62 
C 17.09375 62 18.296875 62 19.5 62 
L 27.796875 62 
L 27.796875 -0.5 
L 36.203125 -0.5 
z
" id="CMSS17-84"/>
      <path d="M 15.296875 65.359375 
L 6.90625 65.359375 
L 6.90625 57 
L 15.296875 57 
z
M 14.796875 42.796875 
L 7.40625 42.796875 
L 7.40625 0 
L 14.796875 0 
z
" id="CMSS17-105"/>
      <path d="M 67 29.328125 
C 67 36.0625 65.296875 44 54.09375 44 
C 46.59375 44 42.09375 39.3125 40.09375 36.421875 
C 38.296875 41.71875 34.09375 44 28.09375 44 
C 21.296875 44 17 40.125 14.703125 37.328125 
L 14.703125 43.09375 
L 7.40625 43.09375 
L 7.40625 0 
L 15 0 
L 15 24.359375 
C 15 30.296875 17.203125 37.9375 24.296875 37.9375 
C 33.40625 37.9375 33.40625 31.5 33.40625 28.578125 
L 33.40625 0 
L 41 0 
L 41 24.359375 
C 41 30.296875 43.203125 37.9375 50.296875 37.9375 
C 59.40625 37.9375 59.40625 31.5 59.40625 28.578125 
L 59.40625 0 
L 67 0 
z
" id="CMSS17-109"/>
      <path d="M 39.09375 21.515625 
C 39.09375 24.84375 38.90625 31.296875 35.703125 36.640625 
C 32.203125 42.390625 26.5 44 22.203125 44 
C 11.796875 44 3 34.1875 3 21.484375 
C 3 9.09375 12.09375 -1 23.59375 -1 
C 28.09375 -1 33.59375 0.296875 38.59375 3.875 
C 38.59375 4.28125 38.40625 6.46875 38.296875 6.5625 
C 38.296875 6.765625 38 9.84375 38 10.25 
C 33.203125 6.359375 27.703125 5.078125 23.703125 5.078125 
C 17.296875 5.078125 10.40625 10.421875 10.09375 21.515625 
z
M 10.90625 27 
C 12.203125 32.5625 16.59375 37.828125 22.203125 37.828125 
C 23.703125 37.828125 30.703125 37.828125 32.5 27 
z
" id="CMSS17-101"/>
      <path d="M 20.59375 29.234375 
C 20.796875 29.84375 23.296875 34.828125 27 38.015625 
C 29.59375 40.40625 33 42.015625 36.90625 42.015625 
C 40.90625 42.015625 42.296875 39.015625 42.296875 35.03125 
C 42.296875 34.421875 42.296875 32.4375 41.09375 27.734375 
L 38.59375 17.46875 
C 37.796875 14.46875 35.90625 7.078125 35.703125 5.984375 
C 35.296875 4.484375 34.703125 1.890625 34.703125 1.5 
C 34.703125 0.09375 35.796875 -1 37.296875 -1 
C 40.296875 -1 40.796875 1.296875 41.703125 4.890625 
L 47.703125 28.734375 
C 47.90625 29.53125 53.09375 42.015625 64.09375 42.015625 
C 68.09375 42.015625 69.5 39.015625 69.5 35.03125 
C 69.5 29.4375 65.59375 18.5625 63.40625 12.578125 
C 62.5 10.171875 62 8.875 62 7.078125 
C 62 2.59375 65.09375 -1 69.90625 -1 
C 79.203125 -1 82.703125 13.671875 82.703125 14.265625 
C 82.703125 14.765625 82.296875 15.171875 81.703125 15.171875 
C 80.796875 15.171875 80.703125 14.875 80.203125 13.171875 
C 77.90625 5.1875 74.203125 1 70.203125 1 
C 69.203125 1 67.59375 1 67.59375 4.203125 
C 67.59375 6.8125 68.796875 10 69.203125 11.09375 
C 71 15.90625 75.5 27.703125 75.5 33.515625 
C 75.5 39.5 72 44 64.40625 44 
C 57.703125 44 52.296875 40.21875 48.296875 34.328125 
C 48 39.71875 44.703125 44 37.203125 44 
C 28.296875 44 23.59375 37.734375 21.796875 35.234375 
C 21.5 40.90625 17.40625 44 13 44 
C 10.09375 44 7.796875 42.609375 5.90625 38.8125 
C 4.09375 35.21875 2.703125 29.140625 2.703125 28.734375 
C 2.703125 28.34375 3.09375 27.84375 3.796875 27.84375 
C 4.59375 27.84375 4.703125 27.9375 5.296875 30.234375 
C 6.796875 36.125 8.703125 42.015625 12.703125 42.015625 
C 15 42.015625 15.796875 40.40625 15.796875 37.421875 
C 15.796875 35.21875 14.796875 31.328125 14.09375 28.234375 
L 11.296875 17.46875 
C 10.90625 15.5625 9.796875 11.078125 9.296875 9.28125 
C 8.59375 6.6875 7.5 2 7.5 1.5 
C 7.5 0.09375 8.59375 -1 10.09375 -1 
C 11.296875 -1 12.703125 -0.40625 13.5 1.09375 
C 13.703125 1.59375 14.59375 5.09375 15.09375 7.078125 
L 17.296875 16.0625 
z
" id="CMMI12-109"/>
     </defs>
     <use transform="scale(0.996264)" xlink:href="#CMSS17-84"/>
     <use transform="translate(63.819454 0)scale(0.996264)" xlink:href="#CMSS17-105"/>
     <use transform="translate(86.000177 0)scale(0.996264)" xlink:href="#CMSS17-109"/>
     <use transform="translate(160.229431 0)scale(0.996264)" xlink:href="#CMSS17-101"/>
     <use transform="translate(233.097366 0)scale(0.996264)" xlink:href="#CMMI12-116"/>
     <use transform="translate(290.462903 0)scale(0.996264)" xlink:href="#CMSY10-1"/>
     <use transform="translate(340.276195 0)scale(0.996264)" xlink:href="#CMMI12-109"/>
    </g>
   </g>
   <g id="patch_2">
    <path d="M 406.310051 202.732713 
Q 387.809152 200.218028 370.416101 197.853924 
" style="fill:none;stroke:#000000;stroke-linecap:round;"/>
    <path d="M 374.110288 200.374436 
L 370.416101 197.853924 
L 374.649023 196.410882 
" style="fill:none;stroke:#000000;stroke-linecap:round;"/>
   </g>
   <g id="patch_3">
    <path d="M 360.907752 472.308399 
Q 384.427208 338.639493 407.752918 206.071707 
" style="fill:none;stroke:#000000;stroke-linecap:round;"/>
    <path d="M 405.090012 209.664607 
L 407.752918 206.071707 
L 409.029495 210.357772 
" style="fill:none;stroke:#000000;stroke-linecap:round;"/>
   </g>
   <g id="patch_4">
    <path d="M 360.619216 472.276486 
Q 364.539366 335.855257 368.427402 200.551601 
" style="fill:none;stroke:#ff0000;stroke-linecap:round;"/>
    <path d="M 366.313332 204.492503 
L 368.427402 200.551601 
L 370.311682 204.607398 
" style="fill:none;stroke:#ff0000;stroke-linecap:round;"/>
   </g>
   <g id="patch_5">
    <path d="M 90.085 545.464526 
Q 90.085 338.639964 90.085 132.933435 
" style="fill:none;stroke:#000000;stroke-linecap:round;"/>
    <path d="M 88.085 136.933435 
L 90.085 132.933435 
L 92.085 136.933435 
" style="fill:none;stroke:#000000;stroke-linecap:round;"/>
   </g>
   <g id="patch_6">
    <path d="M 258.733978 352.755068 
Q 239.243913 350.769969 220.866129 348.898158 
" style="fill:none;stroke:#ff0000;stroke-linecap:round;"/>
    <path d="M 224.642886 351.293175 
L 220.866129 348.898158 
L 225.048196 347.313762 
" style="fill:none;stroke:#ff0000;stroke-linecap:round;"/>
   </g>
  </g>
 </g>
 <defs>
  <clipPath id="p7222ae4aa8">
   <rect height="501.1776" width="461.4016" x="78.1522" y="78.1056"/>
  </clipPath>
 </defs>
</svg>
